<?xml version="1.0" standalone="no"?>
<!DOCTYPE svg PUBLIC "-//W3C//DTD SVG 20010904//EN"
 "http://www.w3.org/TR/2001/REC-SVG-20010904/DTD/svg10.dtd">
<svg version="1.0" xmlns="http://www.w3.org/2000/svg"
 width="1096.000000pt" height="1096.000000pt" viewBox="0 0 1096.000000 1096.000000"
 preserveAspectRatio="xMidYMid meet">
<metadata>
Created by potrace 1.11, written by Peter Selinger 2001-2013
</metadata>
<g transform="translate(0.000000,1096.000000) scale(0.100000,-0.100000)"
fill="#000000" stroke="none">
<path d="M1748 9296 c-27 -7 -48 -11 -48 -9 0 2 -18 -8 -40 -22 -22 -14 -43
-25 -46 -25 -20 0 -105 -113 -136 -180 -26 -57 -59 -173 -64 -225 -1 -16 -3
-30 -4 -30 -13 0 -18 -416 -6 -540 3 -38 8 -83 10 -100 3 -16 7 -59 11 -95 7
-66 11 -96 20 -140 3 -14 8 -45 11 -70 3 -25 12 -78 20 -119 9 -40 17 -87 20
-105 2 -17 13 -74 24 -126 11 -52 23 -106 26 -120 2 -14 11 -52 19 -85 8 -33
17 -71 19 -85 3 -14 5 -25 6 -25 1 0 3 -7 5 -15 1 -8 10 -46 20 -83 9 -37 18
-73 19 -80 1 -7 5 -21 9 -32 3 -11 8 -31 11 -45 3 -14 19 -74 36 -135 17 -60
32 -117 34 -125 3 -13 23 -82 32 -115 16 -54 22 -104 22 -182 l0 -92 -55 -58
c-31 -32 -85 -91 -122 -132 -36 -41 -77 -86 -91 -101 -14 -15 -38 -44 -54 -65
-16 -20 -41 -49 -55 -65 -45 -48 -71 -80 -66 -80 3 0 -3 -8 -13 -18 -9 -10
-28 -32 -42 -50 -14 -18 -35 -45 -48 -60 -12 -15 -35 -45 -50 -67 -15 -22 -30
-42 -33 -45 -18 -14 -139 -207 -182 -288 -42 -80 -102 -253 -92 -264 2 -2 6
-17 9 -33 13 -73 82 -117 186 -118 70 -1 177 10 192 19 5 3 21 8 36 10 50 9
57 10 132 33 130 40 333 113 415 151 52 23 121 52 130 54 6 1 54 23 108 49 54
26 104 47 112 47 7 0 18 7 25 15 7 8 18 15 24 15 6 0 38 14 70 30 32 17 64 30
71 30 7 0 18 7 25 15 7 8 16 13 20 10 5 -3 10 -2 12 2 1 5 95 54 208 111 229
114 482 246 519 269 14 9 57 33 95 53 137 72 231 123 241 131 6 4 35 21 65 37
30 16 73 39 95 52 22 12 96 54 165 93 69 39 128 75 131 80 3 5 9 8 13 8 3 -1
42 17 86 39 45 22 104 50 133 61 29 11 61 24 72 28 34 15 121 41 162 47 21 3
41 8 44 10 10 6 100 15 159 16 263 5 436 -140 509 -427 24 -94 46 -212 57
-302 8 -71 11 -183 4 -183 -3 0 -5 -17 -5 -37 1 -67 -38 -164 -82 -204 -41
-37 -73 -48 -134 -44 -102 5 -239 92 -374 236 -33 35 -87 87 -120 116 -68 58
-198 127 -226 120 -10 -3 -21 -1 -24 3 -5 7 -97 5 -135 -3 -42 -9 -129 -43
-170 -66 -25 -14 -65 -37 -90 -49 -25 -13 -61 -32 -80 -44 -120 -72 -775 -398
-800 -398 -5 0 -10 -4 -10 -10 0 -5 -3 -9 -7 -8 -5 1 -66 -26 -136 -60 -70
-34 -132 -62 -138 -62 -5 0 -9 -4 -9 -10 0 -5 -3 -9 -7 -8 -5 1 -51 -19 -103
-44 -52 -25 -144 -69 -205 -98 -60 -29 -192 -92 -293 -141 -100 -49 -184 -89
-186 -89 -2 0 -97 -45 -212 -101 -115 -56 -243 -117 -284 -136 -199 -94 -358
-173 -392 -196 -20 -14 -39 -23 -42 -19 -3 3 -6 0 -6 -6 0 -7 -5 -12 -10 -12
-6 0 -39 -17 -73 -39 -108 -67 -262 -155 -266 -152 -2 1 -7 -1 -10 -6 -3 -4
-22 -19 -42 -32 -111 -74 -109 -200 5 -309 51 -48 201 -152 221 -152 7 0 15
-4 17 -8 1 -4 80 -46 173 -92 94 -47 173 -89 176 -93 3 -5 8 -8 10 -7 2 2 262
-126 578 -284 316 -157 580 -286 587 -286 7 0 14 -4 16 -8 2 -6 450 -233 468
-237 3 0 34 -16 70 -35 36 -19 67 -34 70 -35 3 0 130 -62 282 -138 153 -75
280 -137 283 -137 2 0 29 -11 59 -25 30 -14 58 -25 61 -25 4 0 21 -6 38 -14
99 -44 298 -109 381 -123 17 -3 62 -6 99 -6 55 0 72 3 88 20 22 21 27 61 14
108 -13 47 -104 181 -198 290 -60 69 -88 111 -93 135 -4 19 -9 40 -13 45 -3 6
-6 15 -7 20 -1 6 -5 26 -8 45 -4 19 -10 51 -14 70 -3 19 -6 89 -6 155 1 130
18 221 60 311 13 28 24 56 24 62 0 6 3 12 8 14 4 2 22 26 41 53 28 40 275 295
287 295 1 0 27 25 56 55 99 104 152 125 250 104 107 -25 259 -126 389 -261 64
-66 72 -90 65 -198 -4 -76 -46 -190 -82 -225 -48 -46 -221 -314 -217 -335 1
-3 -5 -20 -13 -39 -8 -19 -15 -45 -16 -58 -2 -13 -5 -23 -8 -23 -4 0 -6 -16
-5 -36 0 -19 -2 -37 -6 -39 -3 -3 -5 -17 -2 -32 2 -16 6 -47 8 -70 15 -126
132 -260 290 -331 50 -23 51 -23 523 -20 307 2 475 7 480 13 6 10 47 30 65 34
4 0 15 8 25 17 9 8 35 29 57 45 130 99 184 282 132 451 -8 26 -12 49 -9 52 3
4 0 6 -6 6 -7 0 -12 6 -12 14 0 29 -87 183 -148 261 -12 17 -31 40 -40 53 -9
12 -22 28 -27 35 -34 40 -76 133 -80 177 -2 14 -4 27 -5 30 -4 9 -1 84 5 126
5 35 18 52 93 123 117 110 109 103 181 149 116 75 238 105 306 76 30 -12 88
-66 315 -289 168 -165 218 -242 260 -402 28 -111 32 -289 6 -398 -2 -11 -7
-33 -11 -50 -19 -82 -41 -134 -74 -170 -20 -22 -52 -60 -71 -84 -19 -24 -42
-51 -50 -60 -51 -56 -118 -179 -126 -233 -5 -32 -2 -42 24 -67 27 -28 32 -29
103 -26 41 2 88 8 106 13 17 6 34 8 37 4 3 -3 6 0 6 7 0 7 4 10 9 7 15 -9 202
55 425 147 16 7 115 54 220 106 105 52 193 95 196 95 14 3 145 72 148 79 2 4
7 5 12 2 5 -3 16 2 24 11 9 8 16 13 16 9 0 -8 63 27 72 40 4 6 8 7 8 3 0 -6
398 186 465 224 34 19 39 21 470 234 231 114 423 212 426 217 3 5 9 8 13 7 11
-2 201 92 204 101 2 5 9 9 15 9 11 0 437 209 447 220 3 3 24 14 47 25 24 11
43 23 43 26 0 4 14 12 30 19 17 7 30 16 30 21 0 5 6 9 13 9 12 0 137 113 137
125 0 3 8 17 17 32 44 67 27 151 -42 209 -37 31 -119 81 -147 91 -10 3 -18 9
-18 14 0 5 -5 9 -10 9 -6 0 -62 32 -126 70 -64 39 -119 70 -121 70 -3 0 -17 8
-31 19 -42 29 -182 101 -198 101 -8 0 -14 5 -14 10 0 6 -5 10 -11 10 -6 0 -70
29 -142 64 -73 35 -184 88 -247 119 -63 30 -151 72 -195 93 -44 21 -82 39 -85
39 -3 1 -68 32 -145 69 -77 38 -187 91 -245 118 -266 127 -431 207 -814 392
-142 69 -262 126 -267 126 -5 0 -9 5 -9 10 0 6 -7 10 -15 10 -15 0 -357 172
-385 193 -35 28 -212 120 -281 148 -110 44 -211 45 -313 3 -82 -33 -146 -83
-276 -214 -97 -97 -197 -180 -218 -180 -7 0 -12 -3 -12 -7 0 -15 -96 -47 -145
-49 -59 -2 -111 17 -143 51 -13 14 -20 25 -16 25 4 0 0 8 -9 18 -19 21 -51
128 -43 148 3 7 2 14 -3 14 -8 0 -6 181 3 245 4 22 8 55 11 72 3 18 10 54 16
80 6 27 13 59 15 73 9 51 46 157 76 218 27 55 87 127 144 172 46 36 192 87
220 76 7 -3 16 -1 19 3 6 10 65 8 82 -2 7 -4 14 -3 17 1 4 7 98 -7 211 -31 6
-2 16 -6 23 -10 6 -5 12 -6 12 -3 0 5 20 -1 95 -30 11 -4 22 -8 25 -9 55 -19
233 -105 253 -123 9 -8 17 -12 17 -8 0 4 12 -1 28 -12 40 -28 243 -142 253
-142 5 0 9 -5 9 -11 0 -5 5 -7 10 -4 6 3 10 2 10 -3 0 -5 8 -12 18 -15 19 -7
121 -64 140 -79 6 -6 12 -7 12 -2 0 5 4 4 8 -1 4 -6 30 -22 57 -37 28 -14 79
-42 115 -62 36 -20 90 -48 120 -63 30 -16 57 -30 60 -33 21 -21 888 -459 920
-465 3 0 45 -20 94 -43 49 -23 90 -42 92 -42 2 0 27 -11 56 -24 29 -13 89 -38
133 -56 44 -17 91 -36 105 -42 14 -6 30 -12 35 -14 6 -1 55 -19 110 -38 55
-20 102 -37 105 -37 3 -1 10 -3 15 -5 6 -1 26 -7 45 -13 19 -6 46 -12 60 -15
14 -2 55 -12 92 -20 84 -20 186 -26 249 -13 55 11 118 63 121 100 4 61 -4 131
-20 170 -7 16 -12 30 -12 32 0 15 -69 146 -114 219 -31 48 -56 92 -56 96 0 5
-4 10 -8 12 -5 2 -36 41 -70 88 -74 102 -94 128 -121 157 -12 12 -21 26 -21
32 0 5 -3 11 -8 13 -4 2 -27 28 -52 58 -25 30 -47 57 -50 60 -3 3 -34 39 -70
80 -67 78 -118 135 -135 154 -6 6 -44 47 -86 91 l-74 81 2 89 c2 78 8 131 19
170 2 6 10 35 19 65 9 30 17 62 20 70 2 8 17 66 35 129 17 62 33 120 35 130 2
9 11 45 20 81 9 36 18 72 20 80 5 23 47 199 60 250 1 5 14 71 21 105 2 11 6
30 9 43 3 12 7 30 9 41 2 10 7 35 10 56 4 20 8 40 10 44 2 3 7 26 10 51 3 25
8 56 11 70 2 14 7 36 10 50 2 14 7 45 10 70 3 25 8 52 10 60 3 8 7 42 10 75 3
33 8 71 10 85 20 127 27 238 27 415 0 197 -11 299 -47 435 -36 137 -126 260
-225 307 -81 39 -180 48 -305 29 -45 -7 -172 -51 -240 -82 -33 -15 -62 -28
-65 -29 -3 0 -41 -21 -85 -46 -123 -70 -130 -74 -135 -79 -11 -11 -70 -50 -75
-50 -5 0 -154 -108 -165 -120 -3 -3 -30 -23 -60 -45 -53 -38 -95 -73 -129
-105 -9 -8 -29 -25 -45 -38 -47 -36 -153 -132 -240 -214 l-81 -78 -1330 -1
c-731 0 -1733 -1 -2226 -1 l-897 0 -66 65 c-36 36 -96 91 -133 124 -36 32 -77
67 -89 78 -22 19 -66 56 -148 123 -23 18 -52 41 -64 52 -13 11 -27 20 -32 20
-5 0 -10 3 -12 8 -7 17 -254 188 -349 241 -150 84 -329 158 -424 176 -74 13
-183 14 -227 1z m2452 -4181 c56 4 179 -55 250 -121 31 -29 100 -137 106 -166
1 -5 3 -9 4 -10 15 -15 18 -177 5 -229 -32 -120 -121 -231 -228 -283 -74 -36
-103 -41 -207 -40 -75 1 -95 5 -154 34 -70 33 -103 56 -140 99 -12 13 -26 29
-32 36 -16 16 -65 113 -70 139 -23 114 -20 171 12 259 8 23 18 50 21 60 3 9 9
17 13 17 4 0 13 13 20 30 7 16 15 28 19 26 4 -3 15 7 25 22 38 56 159 117 251
126 31 3 60 8 63 11 3 2 10 1 16 -3 6 -5 18 -8 26 -7z m2771 -8 c105 -16 233
-115 286 -223 37 -73 45 -102 48 -181 9 -184 -109 -351 -300 -424 -44 -17
-176 -20 -232 -5 -46 12 -124 48 -147 67 -43 36 -56 49 -87 89 -58 73 -82 142
-85 241 -4 113 25 208 85 282 32 40 113 107 129 107 6 0 12 5 12 10 0 6 9 10
19 10 11 0 22 4 25 9 7 11 57 22 120 27 27 2 51 6 54 8 2 3 12 2 21 -3 9 -5
32 -11 52 -14z"/>
</g>
</svg>
