<?xml version="1.0" encoding="utf-8"?>
<!-- Generator: Adobe Illustrator 22.0.1, SVG Export Plug-In . SVG Version: 6.00 Build 0)  -->
<svg version="1.1" id="Layer_1" xmlns="http://www.w3.org/2000/svg" xmlns:xlink="http://www.w3.org/1999/xlink" x="0px" y="0px"
	 viewBox="0 0 1223.9 1080" style="enable-background:new 0 0 1223.9 1080;" xml:space="preserve">
<style type="text/css">
	.st0{fill:#DBDBDB;}
	.st1{fill:#898989;}
	.st2{fill:#B0AFB2;}
	.st3{fill:#C4C4C4;}
	.st4{fill:#D7D6D8;}
	.st5{fill:#C1C1C1;}
	.st6{fill:#9F9FA0;}
	.st7{fill:#636366;}
	.st8{fill:#141414;}
	.st9{fill:#6D6D6D;}
	.st10{fill:#020202;}
	.st11{fill:#262626;}
	.st12{fill:#1E1E1E;}
	.st13{fill:#1C1C1C;}
	.st14{fill:#0F0F0F;}
	.st15{fill:#4C4C4C;}
	.st16{fill:#3B3B3D;}
	.st17{fill:#CCCCCC;}
	.st18{fill:#E2E2E2;}
	.st19{fill:#353535;}
	.st20{fill:#232323;}
	.st21{fill:#3D3D3D;}
	.st22{fill:#161616;}
	.st23{fill:#212121;}
	.st24{fill:#191919;}
	.st25{fill:#0C0C0C;}
	.st26{fill:#111111;}
	.st27{fill:#7F7F7F;}
	.st28{fill:#939393;}
	.st29{fill:#E0E0E0;}
	.st30{fill:#F2F2F2;}
	.st31{fill:#57448C;}
	.st32{fill:#EDEDED;}
	.st33{fill:#494949;}
	.st34{fill:#636363;}
	.st35{fill:#EFEFEF;}
	.st36{fill:#999999;}
	.st37{fill:#515151;}
	.st38{fill:#AEAFAE;}
	.st39{fill:#A3A3A3;}
	.st40{fill:#666666;}
	.st41{fill:#878787;}
	.st42{fill:#4F4F4F;}
</style>
<polyline class="st0" points="410.4,956.9 524.6,1059 619.3,1064.9 733.7,1058.1 828.2,956.9 751.6,1009.2 696.9,1027.8 
	619.3,1027.8 534.5,1024.4 487,1009.2 410.4,956.9 "/>
<g>
	<g>
		<g>
			<polygon class="st1" points="691.6,562.1 845.2,730.8 741.7,759.5 			"/>
			<polygon class="st2" points="845.2,730.8 845.2,850.6 741.7,759.5 			"/>
			<polygon class="st3" points="845.2,850.6 733.7,897.8 741.7,759.5 			"/>
			<polygon class="st4" points="733.7,897.8 828.2,956.9 845.2,850.6 			"/>
			<polygon class="st5" points="828.2,956.9 722.7,956.9 733.7,897.8 			"/>
			<polygon class="st6" points="828.2,956.9 751.6,1009.2 722.7,956.9 			"/>
			<polygon class="st6" points="722.7,956.9 674.6,956.9 733.7,897.8 			"/>
			<polygon class="st1" points="722.7,956.9 704.1,990.6 751.6,1009.2 			"/>
			<polygon class="st1" points="619.3,713.9 738.6,813.5 741.7,759.5 			"/>
			<polygon class="st7" points="619.3,713.9 691.6,562.1 741.7,759.5 			"/>
		</g>
		<g>
			<polygon class="st1" points="547,562 393.5,730.8 496.9,759.4 			"/>
			<polygon class="st2" points="393.5,730.8 393.5,850.5 496.9,759.4 			"/>
			<polygon class="st3" points="393.5,850.5 505,897.8 496.9,759.4 			"/>
			<polygon class="st4" points="505,897.8 410.4,956.8 393.5,850.5 			"/>
			<polygon class="st5" points="410.4,956.8 516,956.8 505,897.8 			"/>
			<polygon class="st6" points="410.4,956.8 487,1009.1 516,956.8 			"/>
			<polygon class="st6" points="516,956.8 564.1,956.8 505,897.8 			"/>
			<polygon class="st1" points="516,956.8 534.5,990.6 487,1009.1 			"/>
			<polygon class="st1" points="619.3,713.9 500.1,813.5 496.9,759.4 			"/>
			<polygon class="st7" points="619.3,713.9 547,562 496.9,759.4 			"/>
			<polygon class="st7" points="534.5,990.6 611.2,977.5 564.1,956.8 516,956.8 			"/>
		</g>
	</g>
	<polygon class="st8" points="617.7,827.3 680.5,765 558.1,765 	"/>
	<polygon class="st9" points="619.3,713.9 558.1,765 680.5,765 	"/>
	<polygon class="st8" points="558.1,765 549.1,888.3 500.1,813.5 	"/>
	<polygon class="st8" points="680.5,765 689.5,888.3 738.6,813.5 	"/>
	<polygon class="st10" points="617.7,827.3 558.1,765 549.1,888.3 	"/>
	<polygon class="st10" points="617.7,827.3 689.5,888.3 680.5,765 	"/>
	<polygon points="549.1,888.3 592.1,932.6 617.7,903.7 617.7,827.3 	"/>
	<polygon points="617.7,903.7 642.1,932.6 689.5,888.3 617.7,827.3 	"/>
	<polygon class="st11" points="500.1,813.5 505,897.8 549.1,888.3 	"/>
	<polygon class="st11" points="738.6,813.5 733.7,897.8 689.5,888.3 	"/>
	<polygon class="st12" points="549.1,888.3 505,897.8 592.1,932.6 	"/>
	<polygon class="st12" points="642.1,932.6 733.7,897.8 689.5,888.3 	"/>
	<polygon class="st11" points="674.6,956.9 642.1,932.6 733.7,897.8 	"/>
	<polygon class="st13" points="564.1,956.8 617.7,980.6 617.7,903.7 	"/>
	<polygon class="st14" points="617.7,980.6 590.4,930.8 617.7,903.7 	"/>
	<polygon class="st11" points="505,897.8 590.4,930.8 564.1,956.8 	"/>
	<polygon class="st13" points="617.7,903.7 642.1,932.6 674.6,956.9 617.7,980.6 	"/>
	<polygon class="st14" points="642.1,932.6 617.7,980.6 617.7,903.7 	"/>
	<polygon class="st7" points="704.1,990.6 626.4,977 674.6,956.9 722.7,956.9 	"/>
</g>
<polyline class="st15" points="534.5,990.6 619.3,973.7 619.3,1027.7 534.5,1024.4 487,1009.2 534.5,990.6 "/>
<polyline class="st16" points="619.3,973.7 704.1,990.7 751.6,1009.2 696.9,1027.7 619.3,1027.7 619.3,973.7 "/>
<polygon class="st17" points="696.9,1027.7 619.3,1064.9 733.7,1058.1 828.2,956.9 751.6,1009.2 "/>
<polygon class="st17" points="619.3,1064.9 534.5,1024.4 487,1009.2 410.4,956.9 524.6,1059 "/>
<polygon class="st18" points="393.5,730.8 346.3,850.5 410.4,956.9 393.5,850.5 "/>
<polygon class="st18" points="845.2,730.8 894.9,834.1 828.2,956.9 845.2,850.5 "/>
<polygon class="st15" points="547,562 619.3,449.3 691.6,562.1 619.3,713.9 "/>
<path class="st11" d="M487,464.4"/>
<polygon class="st19" points="619.3,449.3 505.8,457.4 547,562 "/>
<polygon class="st19" points="619.3,449.3 722.6,457.8 691.6,562.1 "/>
<polygon class="st20" points="505.8,457.4 500.1,613.6 547,562 "/>
<polygon class="st20" points="722.6,457.8 722.6,596.1 691.6,562.1 "/>
<polygon class="st21" points="505.8,457.4 465.9,354.5 407.6,422.8 "/>
<polygon class="st22" points="407.6,422.8 500.1,613.6 505.8,457.4 "/>
<polygon class="st22" points="825.2,417.8 722.6,596.1 722.6,457.8 "/>
<polygon class="st20" points="549.1,455.3 623.6,270.1 680.5,455.3 "/>
<polygon class="st23" points="436.5,388.9 368.3,378.6 317.2,422.8 "/>
<polygon class="st8" points="317.2,422.8 407.6,422.8 436.5,388.9 "/>
<path class="st21" d="M782.5,354.5"/>
<polygon class="st21" points="722.6,457.8 825.2,417.8 782.5,354.5 "/>
<polygon class="st8" points="825.2,417.8 903.1,417.8 804.6,387.1 "/>
<polygon class="st23" points="804.6,387.1 863,378.6 903.1,417.8 "/>
<polygon class="st20" points="317.2,422.8 264.1,417.8 259,449.3 "/>
<polygon class="st20" points="259,449.3 212.2,449.3 202.1,474.7 "/>
<polygon class="st20" points="202.1,474.7 160.3,485.9 154,527 "/>
<polygon class="st24" points="317.2,422.8 500.1,613.6 407.6,422.8 "/>
<polygon class="st25" points="317.2,422.8 452.6,665.7 500.1,613.6 "/>
<polygon class="st26" points="259,449.3 452.6,665.7 317.2,422.8 "/>
<polygon class="st25" points="259,449.3 393.5,730.8 452.6,665.7 "/>
<polygon class="st24" points="202.1,474.7 393.5,730.8 259,449.3 "/>
<polygon class="st25" points="202.1,474.7 346.3,850.5 393.5,730.8 "/>
<polygon class="st24" points="154,527 323.4,790.7 202.1,474.7 "/>
<polygon class="st24" points="154,527 108,544.3 113.1,585.7 "/>
<polygon class="st20" points="113.1,585.7 87.8,607.6 108,640.5 "/>
<polygon class="st24" points="108,640.5 87.8,676.8 108,709.7 "/>
<polygon class="st23" points="108,709.7 108,751 135,769.6 "/>
<polygon class="st24" points="135,769.6 135,805.8 166.2,819.3 "/>
<polygon class="st25" points="113.1,585.7 323.4,790.7 154,527 "/>
<polygon class="st24" points="108,640.5 323.4,790.7 113.1,585.7 "/>
<polygon class="st25" points="108,709.7 323.4,790.7 108,640.5 "/>
<polygon class="st24" points="135,769.6 323.4,790.7 108,709.7 "/>
<polygon class="st15" points="166.2,819.3 323.4,790.7 135,769.6 "/>
<polygon class="st15" points="476.8,1016.2 410.4,956.9 438.4,1000.7 "/>
<polygon class="st15" points="346.3,850.5 368.3,916.3 410.4,956.9 "/>
<polygon class="st27" points="346.3,850.5 166.2,819.3 323.4,790.7 "/>
<polygon class="st28" points="166.2,819.3 238.7,880 346.3,850.5 "/>
<polygon class="st29" points="476.8,1016.2 397.3,1027.7 438.4,1000.7 "/>
<polygon class="st30" points="438.4,1000.7 355.8,990.6 397.3,1027.7 "/>
<polygon class="st29" points="238.7,880 368.3,916.3 346.3,850.5 "/>
<polygon class="st30" points="238.7,880 288.1,942.1 368.3,916.3 "/>
<polygon class="st30" points="288.1,942.1 355.8,990.6 410.4,956.9 "/>
<polygon class="st29" points="288.1,942.1 368.3,916.3 410.4,956.9 "/>
<polygon class="st29" points="355.8,990.6 410.4,956.9 438.4,1000.7 "/>
<polygon class="st30" points="397.3,1027.7 500.1,1037 476.8,1016.2 "/>
<polygon class="st24" points="722.6,596.1 903.1,417.8 825.2,417.8 "/>
<polygon class="st25" points="903.1,417.8 782.5,665.7 722.6,596.1 "/>
<polygon class="st20" points="903.1,417.8 944.9,422.8 957.5,455.3 "/>
<polygon class="st20" points="957.5,455.3 999.3,455.3 1018.3,474.7 "/>
<polygon class="st20" points="1018.3,474.7 1070.2,496.7 1076.5,527 "/>
<polygon class="st20" points="1076.5,527 1109.4,540.8 1115.7,585.7 "/>
<polygon class="st20" points="1115.7,585.7 1132.2,613.1 1115.7,640.5 "/>
<polygon class="st24" points="903.1,417.8 845.2,730.8 782.5,665.7 "/>
<polygon class="st25" points="957.5,455.3 845.2,730.8 903.1,417.8 "/>
<g>
	<g>
		<path d="M465.9,532.3c0,0-15.7-139.9-159.2-42.5C306.7,489.8,384.1,618.6,465.9,532.3z"/>
		<g>
			<circle class="st31" cx="404.1" cy="505" r="35.8"/>
			<g>
				<path d="M400.2,469.3c1-0.1,1.9-0.1,2.9-0.2C402.2,469.1,401.2,469.2,400.2,469.3z"/>
				<path class="st18" d="M404,491.9c-14,0-26.6,5.6-35.7,14.4c0.8,19.2,16.5,34.5,35.8,34.5c19.2,0,34.9-15.2,35.8-34.2
					C430.8,497.6,418.1,491.9,404,491.9z"/>
			</g>
			<circle cx="407.6" cy="502.7" r="10.3"/>
		</g>
	</g>
	<g>
		<path d="M756.6,526.3c0,0,15.7-139.9,159.2-42.5C915.8,483.7,838.4,612.6,756.6,526.3z"/>
		<g>
			<circle class="st31" cx="818.4" cy="499" r="35.8"/>
			<g>
				<path d="M822.3,463.2c-1-0.1-1.9-0.1-2.9-0.2C820.3,463.1,821.3,463.1,822.3,463.2z"/>
				<path class="st18" d="M818.5,485.9c14,0,26.6,5.6,35.7,14.4c-0.8,19.2-16.5,34.5-35.8,34.5c-19.2,0-34.9-15.2-35.8-34.2
					C791.6,491.6,804.4,485.9,818.5,485.9z"/>
			</g>
			<circle cx="814.9" cy="496.7" r="10.3"/>
		</g>
	</g>
</g>
<polygon class="st24" points="957.5,455.3 894.9,834.1 845.2,730.8 "/>
<polygon class="st25" points="957.5,455.3 1018.3,474.7 894.9,834.1 "/>
<polygon class="st24" points="1018.3,474.7 1076.5,527 894.9,834.1 "/>
<polygon class="st25" points="1076.5,527 1115.7,585.7 894.9,834.1 "/>
<polygon class="st24" points="1115.7,585.7 1115.7,640.5 894.9,834.1 "/>
<polygon class="st25" points="1115.7,688.2 894.9,834.1 1115.7,640.5 "/>
<polygon class="st24" points="1115.7,640.5 1132.2,665.7 1115.7,688.2 "/>
<polygon class="st15" points="894.9,834.1 876.5,903.7 828.2,956.9 "/>
<polygon class="st15" points="828.2,956.9 804.6,1000.7 772.8,1016.2 "/>
<polygon class="st24" points="1115.7,688.2 1115.7,750.2 894.9,834.1 "/>
<polygon class="st20" points="1115.7,750.2 1138.5,715.6 1115.7,688.2 "/>
<polygon class="st15" points="1115.7,750.2 1103.1,813.5 894.9,834.1 "/>
<polygon class="st24" points="1115.7,750.2 1123.9,784.7 1103.1,813.5 "/>
<polygon class="st27" points="876.5,903.7 1103.1,813.5 894.9,834.1 "/>
<polygon class="st28" points="1103.1,813.5 1036,880 876.5,903.7 "/>
<polygon class="st29" points="876.5,903.7 989.8,927.3 1036,880 "/>
<polygon class="st30" points="876.5,903.7 930.3,966.4 989.8,927.3 "/>
<polygon class="st29" points="876.5,903.7 871.5,986.6 930.3,966.4 "/>
<polygon class="st30" points="828.2,956.9 871.5,986.6 876.5,903.7 "/>
<polygon class="st30" points="753.4,1037 793.4,1027.7 772.8,1016.2 "/>
<polygon class="st30" points="819.2,1014.2 804.6,1000.7 772.8,1016.2 "/>
<polygon class="st29" points="828.2,956.9 819.2,1014.2 804.6,1000.7 "/>
<polygon class="st30" points="828.2,956.9 845.2,1000.7 819.2,1014.2 "/>
<polygon class="st29" points="871.5,986.6 845.2,1000.7 828.2,956.9 "/>
<polygon class="st29" points="505.8,457.4 529.1,337.6 549.1,455.3 "/>
<polygon class="st29" points="680.5,455.3 704.1,337.6 722.6,457.8 "/>
<polygon class="st30" points="529.1,337.6 465.9,354.5 505.8,457.4 "/>
<polygon class="st17" points="722.6,457.8 704.1,337.6 782.5,354.5 "/>
<polygon class="st30" points="529.1,337.6 623.6,270.1 549.1,455.3 "/>
<polygon class="st17" points="623.6,270.1 704.1,337.6 680.5,455.3 "/>
<polygon class="st29" points="529.1,337.6 514.9,192.5 623.6,270.1 "/>
<polygon class="st30" points="465.9,354.5 514.9,192.5 529.1,337.6 "/>
<polygon class="st29" points="465.9,354.5 386.3,228 514.9,192.5 "/>
<polygon class="st30" points="386.3,228 436.5,388.9 465.9,354.5 "/>
<polygon class="st29" points="386.3,228 317.2,270.1 436.5,388.9 "/>
<polygon class="st32" points="514.9,192.5 629.9,181.1 623.6,270.1 "/>
<polygon class="st29" points="623.6,270.1 704.1,196.2 629.9,181.1 "/>
<polyline class="st30" points="704.1,196.2 704.1,337.6 623.6,270.1 704.1,196.2 "/>
<polygon class="st29" points="704.1,337.6 793.4,222.2 704.1,196.2 "/>
<polygon class="st30" points="782.5,354.5 793.4,222.2 704.1,337.6 "/>
<polyline class="st29" points="871.5,258.4 782.5,354.5 793.4,222.2 871.5,258.4 "/>
<polyline class="st30" points="871.5,258.4 863,378.6 804.6,387.1 782.5,354.5 871.5,258.4 "/>
<polyline class="st29" points="871.5,258.4 950.9,308.5 863,378.6 871.5,258.4 "/>
<polyline class="st30" points="950.9,308.5 944.9,422.8 903.1,417.8 863,378.6 950.9,308.5 "/>
<polygon class="st29" points="1005.3,365.6 950.9,308.5 944.9,422.8 "/>
<polygon class="st30" points="1005.3,365.6 999.3,455.3 957.5,455.3 944.9,422.8 "/>
<polygon class="st29" points="1005.3,365.6 1058.8,422.8 1018.3,474.7 999.3,455.3 "/>
<polygon class="st30" points="1070.2,496.7 1058.8,422.8 1018.3,474.7 "/>
<polygon class="st30" points="1076.5,527 1138.5,556.3 1115.7,469.3 "/>
<polygon class="st29" points="1138.5,556.3 1115.7,585.7 1109.4,540.8 "/>
<polygon class="st30" points="1115.7,585.7 1148.2,640.5 1138.5,556.3 "/>
<polygon class="st29" points="1148.2,640.5 1115.7,640.5 1132.2,613.1 "/>
<polygon class="st30" points="1115.7,640.5 1148.2,640.5 1132.2,665.7 "/>
<polygon class="st29" points="1148.2,640.5 1157.5,688.2 1115.7,688.2 "/>
<polygon class="st29" points="1157.5,688.2 1166.7,715.6 1138.5,715.6 "/>
<polygon class="st30" points="1115.7,688.2 1157.5,688.2 1138.5,715.6 "/>
<polygon class="st30" points="1138.5,715.6 1148.2,750.2 1166.7,715.6 "/>
<polygon class="st29" points="1148.2,750.2 1115.7,750.2 1138.5,715.6 "/>
<polygon class="st30" points="1148.2,750.2 1123.9,784.7 1115.7,750.2 "/>
<polygon class="st30" points="317.2,270.1 317.2,422.8 368.3,378.6 436.5,388.9 "/>
<polygon class="st29" points="317.2,422.8 229.2,346.5 317.2,270.1 "/>
<polygon class="st30" points="229.2,346.5 259,449.3 264.1,417.8 317.2,422.8 "/>
<polygon class="st29" points="259,449.3 154,449.3 229.2,346.5 "/>
<polygon class="st30" points="154,449.3 160.3,485.9 202.1,474.7 212.2,449.3 "/>
<polygon class="st29" points="154,449.3 108,491.9 154,527 160.3,485.9 "/>
<polygon class="st30" points="154,527 68,562 108,491.9 "/>
<polygon class="st29" points="68,562 113.1,585.7 108,544.3 "/>
<polygon class="st30" points="113.1,585.7 68,625.3 68,562 "/>
<polygon class="st29" points="68,625.3 108,640.5 87.8,607.6 "/>
<polygon class="st30" points="108,640.5 75.5,701.9 68,625.3 "/>
<polygon class="st29" points="108,709.7 87.8,676.8 68,715.6 "/>
<polygon class="st30" points="108,709.7 108,784.7 68,715.6 "/>
<polygon class="st29" points="135,769.6 108,784.7 108,751 "/>
<polygon class="st30" points="108,784.7 135,805.8 135,769.6 "/>
<path class="st33" d="M150.6,365.6"/>
<path class="st34" d="M150.6,365.6"/>
<polygon class="st35" points="68,715.6 58.2,796.1 108,784.7 "/>
<polygon class="st35" points="68,625.3 10.2,747.2 68,715.6 75.5,701.9 "/>
<polygon class="st35" points="68,562 23.7,607.6 68,625.3 "/>
<polygon class="st35" points="108,491.9 17.3,553.2 68,562 "/>
<polygon class="st35" points="154,449.3 45.8,469.3 108,491.9 "/>
<polygon class="st35" points="108,784.7 97.9,849.6 135,805.8 "/>
<polygon class="st35" points="135,805.8 121.5,869.5 166.2,819.3 "/>
<polygon class="st35" points="1058.8,422.8 1148.2,436.5 1115.7,469.3 "/>
<polygon class="st35" points="1115.7,469.3 1210.6,527 1136.6,549.1 "/>
<polygon class="st35" points="1138.5,556.3 1197.1,607.6 1148.2,640.5 "/>
<polygon class="st35" points="1148.2,640.5 1197.1,701.9 1157.5,688.2 "/>
<polygon class="st35" points="1166.7,715.6 1185.3,765 1148.2,750.2 "/>
<polygon class="st35" points="1148.2,750.2 1148.2,805.8 1123.9,784.7 "/>
<polygon class="st35" points="1123.9,784.7 1115.7,834.1 1103.1,813.5 "/>
<g>
	<polyline class="st36" points="418.6,159.8 398.3,219.7 365.5,156.5 418.6,159.8 	"/>
	<polyline class="st8" points="228,70.7 243.8,131.9 176.6,108.9 228,70.7 	"/>
	<polyline class="st24" points="243.8,131.9 324.8,118.2 274.7,88.7 228,70.7 243.8,131.9 	"/>
	<polyline class="st8" points="243.8,131.9 283.4,187.1 324.8,118.2 243.8,131.9 	"/>
	<polygon class="st24" points="398.3,219.7 283.4,187.1 324.8,118.2 365.5,156.5 	"/>
	<polyline class="st24" points="283.4,187.1 333.2,257 275.7,264.4 283.4,187.1 	"/>
	<polyline points="333.2,257 398.3,219.7 283.4,187.1 333.2,257 	"/>
	<g>
		<g>
			<polygon class="st37" points="152.2,348 116.4,414 150.8,410.2 			"/>
			<g>
				<g>
					<polygon class="st38" points="163.6,317 131.9,236 201.9,240.4 					"/>
					<polygon class="st28" points="131.9,236 116.8,176.7 201.9,240.4 					"/>
					<polygon class="st27" points="201.9,240.4 170.6,180 116.8,176.7 					"/>
					<polygon class="st39" points="170.6,180 120.1,124.2 116.8,176.7 					"/>
					<polygon class="st27" points="120.1,124.2 176.6,108.9 170.6,180 					"/>
					<polygon class="st36" points="176.6,108.9 123.9,64.2 120.1,124.2 					"/>
					<polygon class="st40" points="123.9,64.2 144.6,33.5 176.6,108.9 					"/>
					<polygon class="st41" points="144.6,33.5 182.1,20.8 176.6,108.9 					"/>
					<polygon class="st24" points="176.6,108.9 243.8,131.9 170.6,180 					"/>
					<polygon class="st24" points="283.4,187.1 201.9,240.4 170.6,180 					"/>
					<polygon points="283.4,187.1 275.7,264.4 201.9,240.4 					"/>
				</g>
			</g>
			<polygon class="st7" points="152.2,348 211.3,337.5 150.8,410.2 			"/>
			<polygon class="st37" points="152.2,348 163.6,317 211.3,337.5 			"/>
			<polygon class="st7" points="163.6,317 201.9,240.4 211.3,337.5 			"/>
			<polygon class="st24" points="275.7,264.4 211.3,337.5 201.9,240.4 			"/>
			<polygon class="st8" points="211.3,337.5 275.7,264.4 280.1,285 			"/>
			<polygon class="st8" points="243.8,131.9 283.4,187.1 170.6,180 			"/>
			<polygon points="275.7,264.4 333.2,257 280.1,285 			"/>
		</g>
	</g>
	<polygon class="st36" points="182.1,20.8 228,70.7 176.6,108.9 	"/>
	<polygon class="st27" points="182.1,20.8 263.1,32.2 228,70.7 	"/>
	<polygon class="st36" points="263.1,32.2 274.7,88.7 228,70.7 	"/>
	<polygon class="st27" points="263.1,32.2 316.8,62.3 274.7,88.7 	"/>
	<polygon class="st36" points="316.8,62.3 324.8,118.2 274.7,88.7 	"/>
	<polygon class="st27" points="316.8,62.3 375.8,93.7 324.8,118.2 	"/>
	<polygon class="st36" points="375.8,93.7 365.5,156.5 324.8,118.2 	"/>
	<polygon class="st27" points="375.8,93.7 418.6,159.8 365.5,156.5 	"/>
</g>
<g>
	<polyline class="st36" points="808.7,176.6 828.9,236.5 861.7,173.3 808.7,176.6 	"/>
	<polyline class="st8" points="999.3,87.5 983.4,148.7 1050.7,125.7 999.3,87.5 	"/>
	<polyline class="st24" points="983.4,148.7 902.4,135 952.6,105.5 999.3,87.5 983.4,148.7 	"/>
	<polyline class="st8" points="983.4,148.7 943.8,203.9 902.4,135 983.4,148.7 	"/>
	<polygon class="st24" points="828.9,236.5 943.8,203.9 902.4,135 861.7,173.3 	"/>
	<polyline class="st24" points="943.8,203.9 894.1,273.7 951.6,281.2 943.8,203.9 	"/>
	<polygon points="894.1,273.7 943.8,203.9 828.9,236.5 894.1,273.7 951.6,281.2 950.9,308.5 	"/>
	<g>
		<g>
			<g>
				<g>
					<polygon class="st38" points="1063.7,333.8 1095.3,252.8 1025.3,257.1 					"/>
					<polygon class="st28" points="1095.3,252.8 1110.4,193.5 1025.3,257.1 					"/>
					<polygon class="st27" points="1025.3,257.1 1056.7,196.8 1110.4,193.5 					"/>
					<polygon class="st39" points="1056.7,196.8 1107.2,141 1110.4,193.5 					"/>
					<polygon class="st27" points="1107.2,141 1050.7,125.7 1056.7,196.8 					"/>
					<polygon class="st36" points="1050.7,125.7 1103.4,81 1107.2,141 					"/>
					<polygon class="st40" points="1103.4,81 1082.6,50.3 1050.7,125.7 					"/>
					<polygon class="st41" points="1082.6,50.3 1045.1,37.6 1050.7,125.7 					"/>
					<polygon class="st24" points="1050.7,125.7 983.4,148.7 1056.7,196.8 					"/>
					<polygon class="st24" points="943.8,203.9 1025.3,257.1 1056.7,196.8 					"/>
					<polygon points="943.8,203.9 951.6,281.2 1025.3,257.1 					"/>
				</g>
			</g>
			<polygon class="st8" points="983.4,148.7 943.8,203.9 1056.7,196.8 			"/>
		</g>
	</g>
	<polygon class="st36" points="1045.1,37.6 999.3,87.5 1050.7,125.7 	"/>
	<polygon class="st27" points="1045.1,37.6 964.1,49 999.3,87.5 	"/>
	<polygon class="st36" points="964.1,49 952.6,105.5 999.3,87.5 	"/>
	<polygon class="st27" points="964.1,49 910.4,79.1 952.6,105.5 	"/>
	<polygon class="st36" points="910.4,79.1 902.4,135 952.6,105.5 	"/>
	<polygon class="st27" points="910.4,79.1 851.4,110.4 902.4,135 	"/>
	<polygon class="st36" points="851.4,110.4 861.7,173.3 902.4,135 	"/>
	<polygon class="st27" points="851.4,110.4 808.7,176.6 861.7,173.3 	"/>
</g>
<polygon class="st7" points="150.8,410.2 229.2,346.5 154,449.3 "/>
<polygon class="st37" points="211.3,337.5 229.2,346.5 150.8,410.2 "/>
<polygon points="229.2,346.5 280.1,285 211.3,337.5 "/>
<polygon class="st8" points="280.1,285 317.2,270.1 229.2,346.5 "/>
<polygon class="st24" points="333.2,257 317.2,270.1 280.1,285 "/>
<polygon class="st24" points="333.2,257 386.3,228 317.2,270.1 "/>
<polygon points="397.5,220.2 385.4,228.4 332.3,257.4 "/>
<polygon class="st7" points="396.6,225.1 418.6,159.8 514.9,192.5 "/>
<polygon class="st8" points="386.3,228 398.3,219.7 396.6,225.1 "/>
<polygon class="st1" points="152.2,348 62.7,446 116.4,414 "/>
<polygon class="st37" points="150.8,410.2 116.8,441.8 154,449.3 "/>
<polygon class="st7" points="116.4,414 116.8,441.8 150.8,410.2 "/>
<polygon class="st7" points="116.8,441.8 109.9,457.4 154,449.3 "/>
<polygon class="st42" points="418.6,159.8 484.7,131.9 514.9,192.5 "/>
<polygon class="st7" points="808.7,176.6 704.1,196.2 793.4,222.2 828.9,236.5 "/>
<polygon class="st42" points="808.7,176.6 756.6,144.5 704.1,196.2 "/>
<polygon class="st42" points="534.2,190.6 547.9,131.9 571,187 "/>
<polygon class="st42" points="600,184.1 623.6,131.9 651.9,185.6 629.9,181.1 "/>
<polygon class="st42" points="670.9,189.5 686.1,141 704.1,196.2 "/>
<polygon class="st24" points="1025.3,257.1 1005.3,308.5 951.6,281.2 "/>
<polygon points="1005.3,308.5 950.9,308.5 951.6,281.2 "/>
<polygon class="st24" points="1005.3,308.5 994.7,354.5 950.9,308.5 "/>
<polygon class="st27" points="1063.7,333.8 1005.3,308.5 1025.3,257.1 "/>
<polygon class="st36" points="1063.7,333.8 994.7,354.5 1005.3,308.5 "/>
<polygon class="st7" points="1063.7,333.8 1076.5,354.5 994.7,354.5 "/>
<polygon class="st7" points="1076.5,354.5 1087.2,381 1058.8,422.8 "/>
<polygon class="st37" points="994.7,354.5 1076.5,354.5 1058.8,422.8 "/>
<polygon class="st37" points="1087.2,381 1110.4,429.7 1058.8,422.8 "/>
<polygon class="st37" points="1076.5,354.5 1136.6,406.2 1087.2,381 "/>
<polygon class="st29" points="1058.8,422.8 1070.2,496.7 1076.5,527 1115.7,469.3 "/>
</svg>
