<?xml version="1.0" encoding="utf-8"?>
<!-- Generator: Adobe Illustrator 22.0.1, SVG Export Plug-In . SVG Version: 6.00 Build 0)  -->
<svg version="1.1" id="Layer_1" xmlns="http://www.w3.org/2000/svg" xmlns:xlink="http://www.w3.org/1999/xlink" x="0px" y="0px"
	 viewBox="0 0 286.1 286.1" style="enable-background:new 0 0 286.1 286.1;" xml:space="preserve">
<style type="text/css">
	.st0{fill:#0E1B28;}
</style>
<g>
	<path class="st0" d="M143,0C64,0,0,64,0,143s64,143,143,143c79,0,143-64,143-143S222,0,143,0z M143,26.8
		c64.2,0,116.2,52,116.2,116.2c0,64.2-52,116.2-116.2,116.2S26.8,207.2,26.8,143C26.8,78.9,78.8,26.8,143,26.8z M137.6,82.5
		l-51.1,51.7c-7.9,4.8-7.9,12.8,0,17.6l51.1,51.7c7.9,4.8,14.3,0.9,14.3-8.8v-24.9h44.7c4.9,0,8.9-4,8.9-8.9v-35.8
		c0-4.9-4-8.9-8.9-8.9H152V91.4C152,81.6,145.5,77.7,137.6,82.5z"/>
</g>
</svg>
