<?xml version="1.0" encoding="utf-8"?>
<!-- Generator: Adobe Illustrator 22.0.1, SVG Export Plug-In . SVG Version: 6.00 Build 0)  -->
<svg version="1.1" id="Layer_1" xmlns="http://www.w3.org/2000/svg" xmlns:xlink="http://www.w3.org/1999/xlink" x="0px" y="0px"
	 viewBox="0 0 341.3 326" style="enable-background:new 0 0 341.3 326;" xml:space="preserve">
<style type="text/css">
	.st0{fill:#2C9984;}
	.st1{fill:#324A5E;}
	.st2{fill:#84DBFF;}
</style>
<path class="st0" d="M337.1,124.4v108c0,21.6-17.6,39.2-39.2,39.2l0,0v50.8l-62-50.8H122.7c-21.6,0-39.2-17.6-39.2-39.2V210l21.6-18
	h113.6c21.6,0,39.2-17.6,39.2-39.2v-68h40C319.5,85.2,337.1,102.8,337.1,124.4z"/>
<path class="st1" d="M218.7,5.6H43.5C21.9,5.6,4.3,23.2,4.3,44.8v108c0,21.6,17.6,39.2,39.2,39.2l0,0v50.8l62-50.8h113.2
	c21.6,0,39.2-17.6,39.2-39.2v-108C257.9,23.2,240.3,5.6,218.7,5.6z"/>
<g>
	<circle class="st2" cx="58.3" cy="100" r="24.4"/>
	<circle class="st2" cx="131.1" cy="100" r="24.4"/>
	<circle class="st2" cx="203.5" cy="100" r="24.4"/>
</g>
</svg>
