<?xml version="1.0" encoding="utf-8"?>
<!-- Generator: Adobe Illustrator 15.1.0, SVG Export Plug-In . SVG Version: 6.00 Build 0)  -->
<!DOCTYPE svg PUBLIC "-//W3C//DTD SVG 1.1//EN" "http://www.w3.org/Graphics/SVG/1.1/DTD/svg11.dtd">
<svg version="1.1" id="Layer_1" xmlns="http://www.w3.org/2000/svg" xmlns:xlink="http://www.w3.org/1999/xlink" x="0px" y="0px"
	 width="1239.121px" height="1326.132px" viewBox="2215.904 126.642 1239.121 1326.132"
	 enable-background="new 2215.904 126.642 1239.121 1326.132" xml:space="preserve">
<path fill="#666666" d="M2285.048,141.435h901.306c28.584,0,51.758,23.17,51.758,51.758v1191.719
	c0,28.584-23.17,51.758-51.758,51.758h-901.306c-28.585,0-51.758-23.17-51.758-51.758V193.189
	C2233.293,164.605,2256.463,141.435,2285.048,141.435z"/>
<path fill="#4D4D4D" d="M2957.966,1315.414h55.946v121.245h-28.508c-15.091,0-27.428-12.338-27.428-27.429v-93.816H2957.966z"/>
<path fill="#FFFFFF" d="M2296.203,233.105h878.992c3.322,0,6.01,2.69,6.01,6.009v1070.282c0,3.321-2.691,6.009-6.01,6.009h-878.992
	c-3.322,0-6.01-2.69-6.01-6.009V239.117C2290.189,235.795,2292.885,233.105,2296.203,233.105z"/>
<circle fill="#ECF0F1" cx="2735.714" cy="1373.859" r="33.753"/>
<path fill="#FAD24D" d="M2337.094,367.148h797.219v469.88h-797.219V367.148z"/>
<path fill="#666666" d="M2992.161,605.013h417.558c14.506,0,26.272,11.763,26.272,26.272v779.104
	c0,14.507-11.763,26.272-26.272,26.272h-417.558c-14.507,0-26.272-11.763-26.272-26.272V631.281
	C2965.892,616.772,2977.654,605.013,2992.161,605.013z"/>
<path fill="#FFFFFF" d="M3011.723,682.864h378.438c1.43,0,2.588,1.156,2.588,2.588v670.772c0,1.429-1.155,2.588-2.588,2.588
	h-378.438c-1.429,0-2.588-1.156-2.588-2.588v-670.77C3009.135,684.023,3010.295,682.864,3011.723,682.864z"/>
<g>
	<circle fill="#ECF0F1" cx="3200.929" cy="1394.216" r="23.745"/>
	<path fill="#ECF0F1" d="M3137.412,647.881h127.064c3.206,0,5.804,2.598,5.804,5.804v0.01c0,3.205-2.598,5.803-5.804,5.803h-127.064
		c-3.205,0-5.803-2.598-5.803-5.803v-0.01C3131.609,650.483,3134.207,647.881,3137.412,647.881z"/>
</g>
<path fill="#FF5B62" d="M2495.873,904.74c39.051,0,70.715,31.653,70.715,70.716c0,39.052-31.664,70.715-70.715,70.715
	c-39.053,0-70.716-31.663-70.716-70.715C2425.16,936.395,2456.82,904.74,2495.873,904.74z"/>
<path fill="#DCE3DB" d="M2394.41,1076.503h202.941v14.344H2394.41V1076.503z M2394.41,1166.685h136.318v14.344H2394.41V1166.685z
	 M2394.41,1121.588h202.941v14.344H2394.41C2394.41,1135.928,2394.41,1121.588,2394.41,1121.588z"/>
<path fill="#21D0C3" d="M2771.892,904.74c39.051,0,70.715,31.653,70.715,70.716c0,39.052-31.664,70.715-70.715,70.715
	c-39.052,0-70.716-31.663-70.716-70.715C2701.174,936.395,2732.841,904.74,2771.892,904.74z"/>
<path fill="#DCE3DB" d="M2670.42,1076.503h202.941v14.344H2670.42V1076.503z M2670.42,1166.685h136.318v14.344H2670.42V1166.685z
	 M2670.42,1121.588h202.941v14.344H2670.42V1121.588z"/>
<path fill="#21D0C3" d="M3181.215,336.052h-891.025v-96.935c0-3.313,2.701-6.01,6.01-6.01h879.003c3.318,0,6.009,2.701,6.009,6.01
	v96.935H3181.215z"/>
<g>
	<path fill="#FFFFFF" d="M2356.224,262.39c12.807,0,23.178,10.367,23.178,23.177c0,12.809-10.368,23.177-23.178,23.177
		c-12.799,0-23.176-10.368-23.176-23.177C2333.049,272.757,2343.429,262.39,2356.224,262.39z"/>
	<path fill="#FFFFFF" d="M2421.472,262.39c12.807,0,23.178,10.367,23.178,23.177c0,12.809-10.368,23.177-23.178,23.177
		c-12.799,0-23.176-10.368-23.176-23.177C2398.297,272.757,2408.671,262.39,2421.472,262.39z"/>
	<path fill="#FFFFFF" d="M2486.718,262.39c12.806,0,23.177,10.367,23.177,23.177c0,12.809-10.367,23.177-23.177,23.177
		c-12.8,0-23.177-10.368-23.177-23.177C2463.541,272.757,2473.918,262.39,2486.718,262.39z"/>
	<path fill="#FFFFFF" d="M2616.771,267.569h529.876c3.903,0,7.085,4.202,7.085,9.341v17.33c0,5.149-3.188,9.342-7.085,9.342
		h-529.876c-3.902,0-7.086-4.202-7.086-9.342v-17.33C2609.685,271.764,2612.865,267.569,2616.771,267.569z"/>
</g>
<path fill="#21D0C3" d="M3392.754,727.835h-383.618v-42.381c0-1.428,1.159-2.577,2.588-2.577h378.449
	c1.429,0,2.587,1.149,2.587,2.577v42.381H3392.754z"/>
<g>
	<path fill="#FFFFFF" d="M3036.232,690.471c7.321,0,13.251,5.926,13.251,13.251c0,7.321-5.927,13.251-13.251,13.251
		c-7.321,0-13.251-5.927-13.251-13.251C3022.981,696.406,3028.918,690.471,3036.232,690.471z"/>
	<path fill="#FFFFFF" d="M3073.53,690.471c7.327,0,13.251,5.926,13.251,13.251c0,7.321-5.923,13.251-13.251,13.251
		c-7.312,0-13.251-5.927-13.251-13.251C3060.272,696.406,3066.209,690.471,3073.53,690.471z"/>
	<path fill="#FFFFFF" d="M3110.821,690.471c7.321,0,13.244,5.926,13.244,13.251c0,7.321-5.927,13.251-13.244,13.251
		s-13.251-5.927-13.251-13.251C3097.566,696.406,3103.504,690.471,3110.821,690.471z"/>
	<path fill="#FFFFFF" d="M3164.695,692.188h213.319c2.856,0,5.176,2.319,5.176,5.176v13.855c0,2.856-2.319,5.176-5.176,5.176
		h-213.319c-2.857,0-5.176-2.319-5.176-5.176v-13.855C3159.519,694.507,3161.838,692.188,3164.695,692.188z"/>
</g>
<path fill="#FAD24D" d="M3027.728,742.362h346.42v204.178h-346.42V742.362z"/>
<path fill="#FF5B62" d="M3211.128,988.421c35.507,0,64.294,28.78,64.294,64.295c0,35.514-28.787,64.304-64.294,64.304
	c-35.515,0-64.294-28.787-64.294-64.304C3146.834,1017.198,3175.624,988.421,3211.128,988.421z"/>
<path fill="#DCE3DB" d="M3099.527,1163.855h223.188v15.772h-223.188V1163.855z M3099.527,1263.042h149.922v15.782h-149.922V1263.042
	z M3099.527,1213.45h223.188v15.772h-223.188V1213.45z"/>
</svg>
