<?xml version="1.0" encoding="utf-8"?>
<!-- Generator: Adobe Illustrator 22.0.1, SVG Export Plug-In . SVG Version: 6.00 Build 0)  -->
<svg version="1.1" xmlns="http://www.w3.org/2000/svg" xmlns:xlink="http://www.w3.org/1999/xlink" x="0px" y="0px"
	 viewBox="0 0 512 512" style="enable-background:new 0 0 512 512;" xml:space="preserve">
<style type="text/css">
	.st0{fill:#DC8744;}
</style>
<g id="Capa_1">
</g>
<g id="Layer_2">
	<path class="st0" d="M255.5,108C174,108,108,174,108,255.5c0,17.6,3.1,34.5,8.8,50.2l39.3-39.3c-0.4-3.4-0.5-6.9-0.5-10.5
		c0-55.5,45-100.5,100.5-100.5s100.5,45,100.5,100.5s-45,100.5-100.5,100.5c-4,0-7.9-0.2-11.8-0.7l-38.5,38.5
		c15.6,5.6,32.4,8.6,49.9,8.6C337,403,403,337,403,255.5S337,108,255.5,108z"/>
</g>
</svg>
