<?xml version="1.0" encoding="utf-8"?>
<!-- Generator: Adobe Illustrator 22.0.1, SVG Export Plug-In . SVG Version: 6.00 Build 0)  -->
<svg version="1.1" xmlns="http://www.w3.org/2000/svg" xmlns:xlink="http://www.w3.org/1999/xlink" x="0px" y="0px"
	 viewBox="0 0 512 512" style="enable-background:new 0 0 512 512;" xml:space="preserve">
<style type="text/css">
	.st0{fill:#FCD462;}
</style>
<g id="Capa_1">
</g>
<g id="Layer_2">
	<path class="st0" d="M284.8,240.1c2.6,4.7,4.1,10.1,4.1,15.9c0,18.1-14.7,32.9-32.9,32.9s-32.9-14.7-32.9-32.9s14.7-32.9,32.9-32.9
		c1.9,0,3.7,0.2,5.5,0.5l29.9-29.9c-10.6-6.1-22.8-9.7-35.9-9.7c-39.5,0-71.5,32-71.5,71.5s32,71.5,71.5,71.5s71.5-32,71.5-71.5
		c0-16.2-5.4-31.1-14.5-43.1L284.8,240.1z"/>
</g>
</svg>
