<?xml version="1.0" encoding="utf-8"?>
<!-- Generator: Adobe Illustrator 22.0.1, SVG Export Plug-In . SVG Version: 6.00 Build 0)  -->
<svg version="1.1" xmlns="http://www.w3.org/2000/svg" xmlns:xlink="http://www.w3.org/1999/xlink" x="0px" y="0px"
	 viewBox="0 0 512 512" style="enable-background:new 0 0 512 512;" xml:space="preserve">
<style type="text/css">
	.st0{display:none;}
	.st1{display:inline;fill:#45B39C;}
	.st2{display:inline;fill:#FCD462;}
	.st3{display:inline;fill:#DC8744;}
	.st4{fill:#118C69;}
</style>
<g id="Capa_1" class="st0">
	<rect x="-124" y="-54" class="st1" width="738" height="598"/>
</g>
<g id="Layer_2" class="st0">
	<path class="st2" d="M430.8,169.6c12.9,26,20.2,55.4,20.2,86.4c0,107.7-87.3,195-195,195S61,363.7,61,256S148.3,61,256,61
		c31,0,60.4,7.3,86.4,20.2l32.2-32.2C339.7,28.9,299.2,17.4,256,17.4C124.2,17.4,17.4,124.2,17.4,256S124.2,494.6,256,494.6
		S494.6,387.8,494.6,256c0-43.2-11.5-83.7-31.6-118.6L430.8,169.6z"/>
	<path class="st3" d="M255.5,108C174,108,108,174,108,255.5c0,17.6,3.1,34.5,8.8,50.2l39.3-39.3c-0.4-3.4-0.5-6.9-0.5-10.5
		c0-55.5,45-100.5,100.5-100.5s100.5,45,100.5,100.5s-45,100.5-100.5,100.5c-4,0-7.9-0.2-11.8-0.7l-38.5,38.5
		c15.6,5.6,32.4,8.6,49.9,8.6C337,403,403,337,403,255.5S337,108,255.5,108z"/>
	<path class="st3" d="M284.8,240.1c2.6,4.7,4.1,10.1,4.1,15.9c0,18.1-14.7,32.9-32.9,32.9s-32.9-14.7-32.9-32.9s14.7-32.9,32.9-32.9
		c1.9,0,3.7,0.2,5.5,0.5l29.9-29.9c-10.6-6.1-22.8-9.7-35.9-9.7c-39.5,0-71.5,32-71.5,71.5s32,71.5,71.5,71.5s71.5-32,71.5-71.5
		c0-16.2-5.4-31.1-14.5-43.1L284.8,240.1z"/>
</g>
<g id="Layer_3">
	<path class="st4" d="M42.8,260.9c-3.2-3.2-4.8-8-4.8-11.1s1.6-8,4.8-11.1l22.3-22.3c6.4-6.4,15.9-6.4,22.3,0l1.6,1.6l87.6,93.9
		c3.2,3.2,8,3.2,11.1,0L401,90.5h1.6l0,0c6.4-6.4,15.9-6.4,22.3,0l22.3,22.3c6.4,6.4,6.4,15.9,0,22.3l0,0L192.5,399.5
		c-3.2,3.2-6.4,4.8-11.1,4.8c-4.8,0-8-1.6-11.1-4.8L46,265.7C46,265.7,42.8,260.9,42.8,260.9z"/>
</g>
</svg>
