<?xml version="1.0" encoding="utf-8"?>
<!-- Generator: Adobe Illustrator 22.0.1, SVG Export Plug-In . SVG Version: 6.00 Build 0)  -->
<svg version="1.1" xmlns="http://www.w3.org/2000/svg" xmlns:xlink="http://www.w3.org/1999/xlink" x="0px" y="0px"
	 viewBox="0 0 512 512" style="enable-background:new 0 0 512 512;" xml:space="preserve">
<style type="text/css">
	.st0{fill:#FCD462;}
</style>
<g id="Capa_1">
</g>
<g id="Layer_2">
	<path class="st0" d="M430.8,169.6c12.9,26,20.2,55.4,20.2,86.4c0,107.7-87.3,195-195,195S61,363.7,61,256S148.3,61,256,61
		c31,0,60.4,7.3,86.4,20.2l32.2-32.2C339.7,28.9,299.2,17.4,256,17.4C124.2,17.4,17.4,124.2,17.4,256S124.2,494.6,256,494.6
		S494.6,387.8,494.6,256c0-43.2-11.5-83.7-31.6-118.6L430.8,169.6z"/>
</g>
</svg>
