<?xml version="1.0" encoding="utf-8"?>
<!-- Generator: Adobe Illustrator 22.0.1, SVG Export Plug-In . SVG Version: 6.00 Build 0)  -->
<svg version="1.1" id="Layer_1" xmlns="http://www.w3.org/2000/svg" xmlns:xlink="http://www.w3.org/1999/xlink" x="0px" y="0px"
	 viewBox="0 0 1013.5 880" style="enable-background:new 0 0 1013.5 880;" xml:space="preserve">
<style type="text/css">
	.st0{fill:#DBDBDB;}
	.st1{fill:#898989;}
	.st2{fill:#B0AFB2;}
	.st3{fill:#C4C4C4;}
	.st4{fill:#D7D6D8;}
	.st5{fill:#C1C1C1;}
	.st6{fill:#9F9FA0;}
	.st7{fill:#636366;}
	.st8{fill:#141414;}
	.st9{fill:#6D6D6D;}
	.st10{fill:#020202;}
	.st11{fill:#262626;}
	.st12{fill:#1E1E1E;}
	.st13{fill:#1C1C1C;}
	.st14{fill:#0F0F0F;}
	.st15{fill:#4C4C4C;}
	.st16{fill:#3B3B3D;}
	.st17{fill:#CCCCCC;}
	.st18{fill:#E2E2E2;}
	.st19{fill:#353535;}
	.st20{fill:#232323;}
	.st21{fill:#3D3D3D;}
	.st22{fill:#161616;}
	.st23{fill:#212121;}
	.st24{fill:#191919;}
	.st25{fill:#0C0C0C;}
	.st26{fill:#111111;}
	.st27{fill:#7F7F7F;}
	.st28{fill:#939393;}
	.st29{fill:#E0E0E0;}
	.st30{fill:#F2F2F2;}
	.st31{fill:#57448C;}
	.st32{fill:#EDEDED;}
	.st33{fill:#494949;}
	.st34{fill:#636363;}
	.st35{fill:#EFEFEF;}
	.st36{fill:#999999;}
	.st37{fill:#515151;}
	.st38{fill:#AEAFAE;}
	.st39{fill:#A3A3A3;}
	.st40{fill:#666666;}
	.st41{fill:#878787;}
</style>
<polyline class="st0" points="339.4,779.7 434.7,864.9 513.7,869.8 609.1,864.2 688,779.8 624.1,823.4 578.4,838.9 513.7,838.9 
	443,836.1 403.3,823.4 339.4,779.7 "/>
<g>
	<g>
		<g>
			<polygon class="st1" points="574.1,450.3 702.2,591.1 615.9,615 			"/>
			<polygon class="st2" points="702.2,591.1 702.2,691 615.9,615 			"/>
			<polygon class="st3" points="702.2,691 609.1,730.5 615.9,615 			"/>
			<polygon class="st4" points="609.1,730.5 688,779.7 702.2,691 			"/>
			<polygon class="st5" points="688,779.7 600,779.7 609.1,730.5 			"/>
			<polygon class="st6" points="688,779.7 624.1,823.4 600,779.7 			"/>
			<polygon class="st6" points="600,779.7 559.8,779.7 609.1,730.5 			"/>
			<polygon class="st1" points="600,779.7 584.5,807.9 624.1,823.4 			"/>
			<polygon class="st1" points="513.7,577 613.2,660.1 615.9,615 			"/>
			<polygon class="st7" points="513.7,577 574.1,450.3 615.9,615 			"/>
		</g>
		<g>
			<polygon class="st1" points="453.4,450.3 325.3,591.1 411.6,615 			"/>
			<polygon class="st2" points="325.3,591.1 325.3,691 411.6,615 			"/>
			<polygon class="st3" points="325.3,691 418.3,730.4 411.6,615 			"/>
			<polygon class="st4" points="418.3,730.4 339.4,779.7 325.3,691 			"/>
			<polygon class="st5" points="339.4,779.7 427.5,779.7 418.3,730.4 			"/>
			<polygon class="st6" points="339.4,779.7 403.3,823.4 427.5,779.7 			"/>
			<polygon class="st6" points="427.5,779.7 467.6,779.7 418.3,730.4 			"/>
			<polygon class="st1" points="427.5,779.7 443,807.9 403.3,823.4 			"/>
			<polygon class="st1" points="513.7,577 414.2,660.1 411.6,615 			"/>
			<polygon class="st7" points="513.7,577 453.4,450.3 411.6,615 			"/>
			<polygon class="st7" points="443,807.9 507,797 467.6,779.7 427.5,779.7 			"/>
		</g>
	</g>
	<polygon class="st8" points="512.4,671.6 564.8,619.6 462.7,619.6 	"/>
	<polygon class="st9" points="513.7,577 462.7,619.6 564.8,619.6 	"/>
	<polygon class="st8" points="462.7,619.6 455.1,722.6 414.2,660.1 	"/>
	<polygon class="st8" points="564.8,619.6 572.3,722.6 613.2,660.1 	"/>
	<polygon class="st10" points="512.4,671.6 462.7,619.6 455.1,722.6 	"/>
	<polygon class="st10" points="512.4,671.6 572.3,722.6 564.8,619.6 	"/>
	<polygon points="455.1,722.6 491,759.5 512.4,735.4 512.4,671.6 	"/>
	<polygon points="512.4,735.4 532.7,759.5 572.3,722.6 512.4,671.6 	"/>
	<polygon class="st11" points="414.2,660.1 418.3,730.4 455.1,722.6 	"/>
	<polygon class="st11" points="613.2,660.1 609.1,730.5 572.3,722.6 	"/>
	<polygon class="st12" points="455.1,722.6 418.3,730.4 491,759.5 	"/>
	<polygon class="st12" points="532.7,759.5 609.1,730.5 572.3,722.6 	"/>
	<polygon class="st11" points="559.8,779.7 532.7,759.5 609.1,730.5 	"/>
	<polygon class="st13" points="467.6,779.7 512.4,799.5 512.4,735.4 	"/>
	<polygon class="st14" points="512.4,799.5 489.6,758 512.4,735.4 	"/>
	<polygon class="st11" points="418.3,730.4 489.6,758 467.6,779.7 	"/>
	<polygon class="st13" points="512.4,735.4 532.7,759.5 559.8,779.7 512.4,799.5 	"/>
	<polygon class="st14" points="532.7,759.5 512.4,799.5 512.4,735.4 	"/>
	<polygon class="st7" points="584.5,807.9 519.6,796.5 559.8,779.7 600,779.7 	"/>
</g>
<polyline class="st15" points="443,807.9 513.7,793.8 513.7,838.9 443,836 403.3,823.4 443,807.9 "/>
<polyline class="st16" points="513.7,793.8 584.5,807.9 624.1,823.4 578.4,838.9 513.7,838.9 513.7,793.8 "/>
<polygon class="st17" points="578.4,838.9 513.7,869.8 609.1,864.2 688,779.8 624.1,823.4 "/>
<polygon class="st17" points="513.7,869.8 443,836 403.3,823.4 339.4,779.7 434.7,864.9 "/>
<polygon class="st18" points="325.3,591.1 285.9,691 339.4,779.7 325.3,691 "/>
<polygon class="st18" points="702.2,591.1 743.7,677.3 688,779.7 702.2,691 "/>
<polygon class="st15" points="453.4,450.3 513.7,356.2 574.1,450.3 513.7,577 "/>
<path class="st11" d="M403.3,368.8"/>
<polygon class="st19" points="513.7,356.2 419,363 453.4,450.3 "/>
<polygon class="st19" points="513.7,356.2 599.9,363.3 574.1,450.3 "/>
<polygon class="st20" points="419,363 414.2,493.3 453.4,450.3 "/>
<polygon class="st20" points="599.9,363.3 599.9,478.7 574.1,450.3 "/>
<polygon class="st21" points="419,363 385.7,277.1 337.1,334.1 "/>
<polygon class="st22" points="337.1,334.1 414.2,493.3 419,363 "/>
<polygon class="st22" points="685.5,329.9 599.9,478.7 599.9,363.3 "/>
<polygon class="st20" points="455.1,361.2 517.3,206.7 564.8,361.2 "/>
<polygon class="st23" points="361.2,305.8 304.3,297.2 261.7,334.1 "/>
<polygon class="st8" points="261.7,334.1 337.1,334.1 361.2,305.8 "/>
<path class="st21" d="M649.9,277.1"/>
<polygon class="st21" points="599.9,363.3 685.5,329.9 649.9,277.1 "/>
<polygon class="st8" points="685.5,329.9 750.5,329.9 668.3,304.3 "/>
<polygon class="st23" points="668.3,304.3 717.1,297.2 750.5,329.9 "/>
<polygon class="st20" points="261.7,334.1 217.3,329.9 213.1,356.2 "/>
<polygon class="st20" points="213.1,356.2 174,356.2 165.6,377.4 "/>
<polygon class="st20" points="165.6,377.4 130.7,386.7 125.5,421 "/>
<polygon class="st24" points="261.7,334.1 414.2,493.3 337.1,334.1 "/>
<polygon class="st25" points="261.7,334.1 374.6,536.8 414.2,493.3 "/>
<polygon class="st26" points="213.1,356.2 374.6,536.8 261.7,334.1 "/>
<polygon class="st25" points="213.1,356.2 325.3,591.1 374.6,536.8 "/>
<polygon class="st24" points="165.6,377.4 325.3,591.1 213.1,356.2 "/>
<polygon class="st25" points="165.6,377.4 285.9,691 325.3,591.1 "/>
<polygon class="st24" points="125.5,421 266.8,641 165.6,377.4 "/>
<polygon class="st24" points="125.5,421 87.1,435.5 91.3,470 "/>
<polygon class="st20" points="91.3,470 70.2,488.3 87.1,515.7 "/>
<polygon class="st24" points="87.1,515.7 70.2,546 87.1,573.5 "/>
<polygon class="st23" points="87.1,573.5 87.1,608 109.6,623.4 "/>
<polygon class="st24" points="109.6,623.4 109.6,653.7 135.7,665 "/>
<polygon class="st25" points="91.3,470 266.8,641 125.5,421 "/>
<polygon class="st24" points="87.1,515.7 266.8,641 91.3,470 "/>
<polygon class="st25" points="87.1,573.5 266.8,641 87.1,515.7 "/>
<polygon class="st24" points="109.6,623.4 266.8,641 87.1,573.5 "/>
<polygon class="st15" points="135.7,665 266.8,641 109.6,623.4 "/>
<polygon class="st15" points="394.8,829.3 339.4,779.7 362.8,816.3 "/>
<polygon class="st15" points="285.9,691 304.3,745.9 339.4,779.7 "/>
<polygon class="st27" points="285.9,691 135.7,665 266.8,641 "/>
<polygon class="st28" points="135.7,665 196.1,715.6 285.9,691 "/>
<polygon class="st29" points="394.8,829.3 328.5,838.9 362.8,816.3 "/>
<polygon class="st30" points="362.8,816.3 293.9,807.9 328.5,838.9 "/>
<polygon class="st29" points="196.1,715.6 304.3,745.9 285.9,691 "/>
<polygon class="st30" points="196.1,715.6 237.4,767.4 304.3,745.9 "/>
<polygon class="st30" points="237.4,767.4 293.9,807.9 339.4,779.7 "/>
<polygon class="st29" points="237.4,767.4 304.3,745.9 339.4,779.7 "/>
<polygon class="st29" points="293.9,807.9 339.4,779.7 362.8,816.3 "/>
<polygon class="st30" points="328.5,838.9 414.2,846.6 394.8,829.3 "/>
<polygon class="st24" points="599.9,478.7 750.5,329.9 685.5,329.9 "/>
<polygon class="st25" points="750.5,329.9 649.9,536.8 599.9,478.7 "/>
<polygon class="st20" points="750.5,329.9 785.4,334.1 795.9,361.2 "/>
<polygon class="st20" points="795.9,361.2 830.8,361.2 846.6,377.4 "/>
<polygon class="st20" points="846.6,377.4 889.9,395.7 895.2,421 "/>
<polygon class="st20" points="895.2,421 922.6,432.6 927.9,470 "/>
<polygon class="st20" points="927.9,470 941.6,492.9 927.9,515.7 "/>
<polygon class="st24" points="750.5,329.9 702.2,591.1 649.9,536.8 "/>
<polygon class="st25" points="795.9,361.2 702.2,591.1 750.5,329.9 "/>
<g>
	<g>
		<path d="M385.7,425.5c0,0-13.1-116.7-132.8-35.5C252.8,390,317.5,497.5,385.7,425.5z"/>
		<g>
			<circle class="st31" cx="334.1" cy="402.7" r="29.9"/>
			<g>
				<path d="M330.9,372.9c0.8-0.1,1.6-0.1,2.4-0.1C332.5,372.7,331.7,372.8,330.9,372.9z"/>
				<path class="st18" d="M334.1,391.8c-11.7,0-22.2,4.6-29.8,12.1c0.6,16,13.8,28.8,29.9,28.8c16.1,0,29.1-12.6,29.9-28.5
					C356.5,396.5,345.9,391.8,334.1,391.8z"/>
			</g>
			<circle cx="337.1" cy="400.7" r="8.6"/>
		</g>
	</g>
	<g>
		<path d="M628.3,420.4c0,0,13.1-116.7,132.8-35.5C761.1,385,696.5,492.5,628.3,420.4z"/>
		<g>
			<circle class="st31" cx="679.8" cy="397.7" r="29.9"/>
			<g>
				<path d="M683.1,367.8c-0.8-0.1-1.6-0.1-2.4-0.1C681.5,367.7,682.3,367.8,683.1,367.8z"/>
				<path class="st18" d="M679.9,386.7c11.7,0,22.2,4.6,29.8,12.1c-0.6,16-13.8,28.8-29.9,28.8c-16.1,0-29.1-12.6-29.9-28.5
					C657.5,391.5,668.1,386.7,679.9,386.7z"/>
			</g>
			<circle cx="676.9" cy="395.7" r="8.6"/>
		</g>
	</g>
</g>
<polygon class="st24" points="795.9,361.2 743.7,677.3 702.2,591.1 "/>
<polygon class="st25" points="795.9,361.2 846.6,377.4 743.7,677.3 "/>
<polygon class="st24" points="846.6,377.4 895.2,421 743.7,677.3 "/>
<polygon class="st25" points="895.2,421 927.9,470 743.7,677.3 "/>
<polygon class="st24" points="927.9,470 927.9,515.7 743.7,677.3 "/>
<polygon class="st25" points="927.9,555.5 743.7,677.3 927.9,515.7 "/>
<polygon class="st24" points="927.9,515.7 941.6,536.8 927.9,555.5 "/>
<polygon class="st15" points="743.7,677.3 728.4,735.4 688,779.7 "/>
<polygon class="st15" points="688,779.7 668.3,816.3 641.8,829.3 "/>
<polygon class="st24" points="927.9,555.5 927.9,607.2 743.7,677.3 "/>
<polygon class="st20" points="927.9,607.2 946.9,578.4 927.9,555.5 "/>
<polygon class="st15" points="927.9,607.2 917.4,660.1 743.7,677.3 "/>
<polygon class="st24" points="927.9,607.2 934.8,636.1 917.4,660.1 "/>
<polygon class="st27" points="728.4,735.4 917.4,660.1 743.7,677.3 "/>
<polygon class="st28" points="917.4,660.1 861.4,715.6 728.4,735.4 "/>
<polygon class="st29" points="728.4,735.4 822.9,755.1 861.4,715.6 "/>
<polygon class="st30" points="728.4,735.4 773.2,787.6 822.9,755.1 "/>
<polygon class="st29" points="728.4,735.4 724.1,804.5 773.2,787.6 "/>
<polygon class="st30" points="688,779.7 724.1,804.5 728.4,735.4 "/>
<polygon class="st30" points="625.6,846.6 659,838.9 641.8,829.3 "/>
<polygon class="st30" points="680.5,827.6 668.3,816.3 641.8,829.3 "/>
<polygon class="st29" points="688,779.7 680.5,827.6 668.3,816.3 "/>
<polygon class="st30" points="688,779.7 702.2,816.3 680.5,827.6 "/>
<polygon class="st29" points="724.1,804.5 702.2,816.3 688,779.7 "/>
<polygon class="st29" points="419,363 438.4,263 455.1,361.2 "/>
<polygon class="st29" points="564.8,361.2 584.5,263 599.9,363.3 "/>
<polygon class="st30" points="438.4,263 385.7,277.1 419,363 "/>
<polygon class="st17" points="599.9,363.3 584.5,263 649.9,277.1 "/>
<polygon class="st30" points="438.4,263 517.3,206.7 455.1,361.2 "/>
<polygon class="st17" points="517.3,206.7 584.5,263 564.8,361.2 "/>
<polygon class="st29" points="438.4,263 426.6,142 517.3,206.7 "/>
<polygon class="st30" points="385.7,277.1 426.6,142 438.4,263 "/>
<polygon class="st29" points="385.7,277.1 319.3,171.5 426.6,142 "/>
<polygon class="st30" points="319.3,171.5 361.2,305.8 385.7,277.1 "/>
<polygon class="st29" points="319.3,171.5 261.7,206.7 361.2,305.8 "/>
<polygon class="st32" points="426.6,142 522.6,132.5 517.3,206.7 "/>
<polygon class="st29" points="517.3,206.7 584.5,145 522.6,132.5 "/>
<polyline class="st30" points="584.5,145 584.5,263 517.3,206.7 584.5,145 "/>
<polygon class="st29" points="584.5,263 659,166.7 584.5,145 "/>
<polygon class="st30" points="649.9,277.1 659,166.7 584.5,263 "/>
<polyline class="st29" points="724.1,197 649.9,277.1 659,166.7 724.1,197 "/>
<polyline class="st30" points="724.1,197 717.1,297.2 668.3,304.3 649.9,277.1 724.1,197 "/>
<polyline class="st29" points="724.1,197 790.4,238.7 717.1,297.2 724.1,197 "/>
<polyline class="st30" points="790.4,238.7 785.4,334.1 750.5,329.9 717.1,297.2 790.4,238.7 "/>
<polygon class="st29" points="835.8,286.4 790.4,238.7 785.4,334.1 "/>
<polygon class="st30" points="835.8,286.4 830.8,361.2 795.9,361.2 785.4,334.1 "/>
<polygon class="st29" points="835.8,286.4 880.4,334.1 846.6,377.4 830.8,361.2 "/>
<polygon class="st30" points="889.9,395.7 880.4,334.1 846.6,377.4 "/>
<polygon class="st29" points="880.4,334.1 927.9,372.9 895.2,421 "/>
<polygon class="st30" points="895.2,421 946.9,445.5 927.9,372.9 "/>
<polygon class="st29" points="946.9,445.5 927.9,470 922.6,432.6 "/>
<polygon class="st30" points="927.9,470 955,515.7 946.9,445.5 "/>
<polygon class="st29" points="955,515.7 927.9,515.7 941.6,492.9 "/>
<polygon class="st30" points="927.9,515.7 955,515.7 941.6,536.8 "/>
<polygon class="st29" points="955,515.7 962.8,555.5 927.9,555.5 "/>
<polygon class="st29" points="962.8,555.5 970.5,578.4 946.9,578.4 "/>
<polygon class="st30" points="927.9,555.5 962.8,555.5 946.9,578.4 "/>
<polygon class="st30" points="946.9,578.4 955,607.2 970.5,578.4 "/>
<polygon class="st29" points="955,607.2 927.9,607.2 946.9,578.4 "/>
<polygon class="st30" points="955,607.2 934.8,636.1 927.9,607.2 "/>
<polygon class="st30" points="261.7,206.7 261.7,334.1 304.3,297.2 361.2,305.8 "/>
<polygon class="st29" points="261.7,334.1 188.2,270.4 261.7,206.7 "/>
<polygon class="st30" points="188.2,270.4 213.1,356.2 217.3,329.9 261.7,334.1 "/>
<polygon class="st29" points="213.1,356.2 125.5,356.2 188.2,270.4 "/>
<polygon class="st30" points="125.5,356.2 130.7,386.7 165.6,377.4 174,356.2 "/>
<polygon class="st29" points="125.5,356.2 87.1,391.8 125.5,421 130.7,386.7 "/>
<polygon class="st30" points="125.5,421 53.7,450.3 87.1,391.8 "/>
<polygon class="st29" points="53.7,450.3 91.3,470 87.1,435.5 "/>
<polygon class="st30" points="91.3,470 53.7,503.1 53.7,450.3 "/>
<polygon class="st29" points="53.7,503.1 87.1,515.7 70.2,488.3 "/>
<polygon class="st30" points="87.1,515.7 60,567 53.7,503.1 "/>
<polygon class="st29" points="87.1,573.5 70.2,546 53.7,578.4 "/>
<polygon class="st30" points="87.1,573.5 87.1,636.1 53.7,578.4 "/>
<polygon class="st29" points="109.6,623.4 87.1,636.1 87.1,608 "/>
<polygon class="st30" points="87.1,636.1 109.6,653.7 109.6,623.4 "/>
<path class="st33" d="M122.6,286.4"/>
<path class="st34" d="M122.6,286.4"/>
<polygon class="st35" points="53.7,578.4 45.6,645.6 87.1,636.1 "/>
<polygon class="st35" points="53.7,503.1 5.4,604.8 53.7,578.4 60,567 "/>
<polygon class="st35" points="53.7,450.3 16.7,488.3 53.7,503.1 "/>
<polygon class="st35" points="87.1,391.8 11.4,442.9 53.7,450.3 "/>
<polygon class="st35" points="125.5,356.2 35.2,372.9 87.1,391.8 "/>
<polygon class="st35" points="87.1,636.1 78.6,690.3 109.6,653.7 "/>
<polygon class="st35" points="109.6,653.7 98.4,706.9 135.7,665 "/>
<polygon class="st35" points="835.8,286.4 904.2,305.8 880.4,334.1 "/>
<polygon class="st35" points="880.4,334.1 955,345.6 927.9,372.9 "/>
<polygon class="st35" points="927.9,372.9 1007.1,421 945.3,439.4 "/>
<polygon class="st35" points="946.9,445.5 995.8,488.3 955,515.7 "/>
<polygon class="st35" points="955,515.7 995.8,567 962.8,555.5 "/>
<polygon class="st35" points="970.5,578.4 986,619.6 955,607.2 "/>
<polygon class="st35" points="955,607.2 955,653.7 934.8,636.1 "/>
<polygon class="st35" points="934.8,636.1 927.9,677.3 917.4,660.1 "/>
<g>
	<polyline class="st36" points="346.2,114.7 329.3,164.6 302,111.9 346.2,114.7 	"/>
	<polyline class="st37" points="346.2,114.7 382,167.9 329.3,164.6 346.2,114.7 	"/>
	<polyline class="st8" points="187.2,40.3 200.4,91.4 144.3,72.2 187.2,40.3 	"/>
	<polyline class="st24" points="200.4,91.4 268,79.9 226.2,55.3 187.2,40.3 200.4,91.4 	"/>
	<polyline class="st8" points="200.4,91.4 233.5,137.4 268,79.9 200.4,91.4 	"/>
	<polygon class="st24" points="329.3,164.6 233.5,137.4 268,79.9 302,111.9 	"/>
	<polyline class="st24" points="233.5,137.4 274.9,195.7 227,202 233.5,137.4 	"/>
	<polyline points="274.9,195.7 329.3,164.6 233.5,137.4 274.9,195.7 	"/>
	<g>
		<g>
			<polygon class="st7" points="92.7,348.1 94.1,326.8 122.8,323.5 			"/>
			<polygon class="st37" points="123.9,271.7 94.1,326.8 122.8,323.5 			"/>
			<g>
				<g>
					<polygon class="st38" points="133.4,245.8 107,178.2 165.4,181.9 					"/>
					<polygon class="st28" points="107,178.2 94.4,128.7 165.4,181.9 					"/>
					<polygon class="st27" points="165.4,181.9 139.3,131.5 94.4,128.7 					"/>
					<polygon class="st39" points="139.3,131.5 97.2,84.9 94.4,128.7 					"/>
					<polygon class="st27" points="97.2,84.9 144.3,72.2 139.3,131.5 					"/>
					<polygon class="st36" points="144.3,72.2 100.3,34.9 97.2,84.9 					"/>
					<polygon class="st40" points="100.3,34.9 117.6,9.2 144.3,72.2 					"/>
					<polygon class="st41" points="117.6,9.2 148.9,-1.4 144.3,72.2 					"/>
					<polygon class="st24" points="144.3,72.2 200.4,91.4 139.3,131.5 					"/>
					<polygon class="st24" points="233.5,137.4 165.4,181.9 139.3,131.5 					"/>
					<polygon points="233.5,137.4 227,202 165.4,181.9 					"/>
				</g>
			</g>
			<polygon class="st7" points="123.9,271.7 173.3,262.9 122.8,323.5 			"/>
			<polygon class="st37" points="123.9,271.7 133.4,245.8 173.3,262.9 			"/>
			<polygon class="st7" points="133.4,245.8 165.4,181.9 173.3,262.9 			"/>
			<polygon class="st37" points="227,202 173.3,262.9 165.4,181.9 			"/>
			<polygon class="st7" points="173.3,262.9 227,202 230.6,219.1 			"/>
			<polygon class="st8" points="200.4,91.4 233.5,137.4 139.3,131.5 			"/>
			<polygon class="st37" points="227,202 274.9,195.7 230.6,219.1 			"/>
		</g>
	</g>
	<polygon class="st36" points="148.9,-1.4 187.2,40.3 144.3,72.2 	"/>
	<polygon class="st27" points="148.9,-1.4 216.5,8.2 187.2,40.3 	"/>
	<polygon class="st36" points="216.5,8.2 226.2,55.3 187.2,40.3 	"/>
	<polygon class="st27" points="216.5,8.2 261.3,33.3 226.2,55.3 	"/>
	<polygon class="st36" points="261.3,33.3 268,79.9 226.2,55.3 	"/>
	<polygon class="st27" points="261.3,33.3 310.5,59.5 268,79.9 	"/>
	<polygon class="st36" points="310.5,59.5 302,111.9 268,79.9 	"/>
	<polygon class="st27" points="310.5,59.5 346.2,114.7 302,111.9 	"/>
</g>
<g>
	<polyline class="st36" points="671.7,128.7 688.6,178.6 716,125.9 671.7,128.7 	"/>
	<polyline class="st37" points="671.7,128.7 635.9,181.9 688.6,178.6 671.7,128.7 	"/>
	<polyline class="st8" points="830.8,54.3 817.5,105.4 873.6,86.2 830.8,54.3 	"/>
	<polyline class="st24" points="817.5,105.4 750,93.9 791.8,69.3 830.8,54.3 817.5,105.4 	"/>
	<polyline class="st8" points="817.5,105.4 784.5,151.4 750,93.9 817.5,105.4 	"/>
	<polygon class="st24" points="688.6,178.6 784.5,151.4 750,93.9 716,125.9 	"/>
	<polyline class="st24" points="784.5,151.4 743,209.7 791,216 784.5,151.4 	"/>
	<polyline points="743,209.7 688.6,178.6 784.5,151.4 743,209.7 	"/>
	<g>
		<g>
			<polygon class="st7" points="925.2,362.1 923.9,340.8 895.1,337.6 			"/>
			<polygon class="st37" points="894,285.7 923.9,340.8 895.1,337.6 			"/>
			<g>
				<g>
					<polygon class="st38" points="884.5,259.8 910.9,192.2 852.5,195.9 					"/>
					<polygon class="st28" points="910.9,192.2 923.5,142.7 852.5,195.9 					"/>
					<polygon class="st27" points="852.5,195.9 878.7,145.5 923.5,142.7 					"/>
					<polygon class="st39" points="878.7,145.5 920.8,98.9 923.5,142.7 					"/>
					<polygon class="st27" points="920.8,98.9 873.6,86.2 878.7,145.5 					"/>
					<polygon class="st36" points="873.6,86.2 917.6,48.9 920.8,98.9 					"/>
					<polygon class="st40" points="917.6,48.9 900.3,23.2 873.6,86.2 					"/>
					<polygon class="st41" points="900.3,23.2 869,12.6 873.6,86.2 					"/>
					<polygon class="st24" points="873.6,86.2 817.5,105.4 878.7,145.5 					"/>
					<polygon class="st24" points="784.5,151.4 852.5,195.9 878.7,145.5 					"/>
					<polygon points="784.5,151.4 791,216 852.5,195.9 					"/>
				</g>
			</g>
			<polygon class="st7" points="894,285.7 844.7,276.9 895.1,337.6 			"/>
			<polygon class="st37" points="894,285.7 884.5,259.8 844.7,276.9 			"/>
			<polygon class="st7" points="884.5,259.8 852.5,195.9 844.7,276.9 			"/>
			<polygon class="st37" points="791,216 844.7,276.9 852.5,195.9 			"/>
			<polygon class="st7" points="844.7,276.9 791,216 787.3,233.1 			"/>
			<polygon class="st8" points="817.5,105.4 784.5,151.4 878.7,145.5 			"/>
			<polygon class="st37" points="791,216 743,209.7 787.3,233.1 			"/>
		</g>
	</g>
	<polygon class="st36" points="869,12.6 830.8,54.3 873.6,86.2 	"/>
	<polygon class="st27" points="869,12.6 801.4,22.2 830.8,54.3 	"/>
	<polygon class="st36" points="801.4,22.2 791.8,69.3 830.8,54.3 	"/>
	<polygon class="st27" points="801.4,22.2 756.6,47.3 791.8,69.3 	"/>
	<polygon class="st36" points="756.6,47.3 750,93.9 791.8,69.3 	"/>
	<polygon class="st27" points="756.6,47.3 707.4,73.5 750,93.9 	"/>
	<polygon class="st36" points="707.4,73.5 716,125.9 750,93.9 	"/>
	<polygon class="st27" points="707.4,73.5 671.7,128.7 716,125.9 	"/>
</g>
<polygon class="st37" points="92.7,348.1 87.1,361.2 125.5,356.2 "/>
<polygon class="st1" points="122.8,323.5 125.5,356.2 92.7,348.1 "/>
<polygon class="st7" points="122.8,323.5 188.2,270.4 125.5,356.2 "/>
<polygon class="st37" points="173.3,262.9 188.2,270.4 122.8,323.5 "/>
<polygon class="st7" points="188.2,270.4 230.6,219.1 173.3,262.9 "/>
<polygon class="st37" points="230.6,219.1 261.7,206.7 188.2,270.4 "/>
</svg>
