<?xml version="1.0" encoding="UTF-8"?>
<svg width="170px" height="126px" viewBox="0 0 170 126" version="1.1" xmlns="http://www.w3.org/2000/svg" xmlns:xlink="http://www.w3.org/1999/xlink">
    <defs>
        <filter x="-10.3%" y="-13.0%" width="120.6%" height="129.6%" filterUnits="objectBoundingBox" id="filter-1">
            <feOffset dx="0" dy="2" in="SourceAlpha" result="shadowOffsetOuter1"></feOffset>
            <feGaussianBlur stdDeviation="5" in="shadowOffsetOuter1" result="shadowBlurOuter1"></feGaussianBlur>
            <feColorMatrix values="0 0 0 0 0   0 0 0 0 0   0 0 0 0 0  0 0 0 0.5 0" type="matrix" in="shadowBlurOuter1" result="shadowMatrixOuter1"></feColorMatrix>
            <feMerge>
                <feMergeNode in="shadowMatrixOuter1"></feMergeNode>
                <feMergeNode in="SourceGraphic"></feMergeNode>
            </feMerge>
        </filter>
    </defs>
    <g id="Page-1" stroke="none" stroke-width="1" fill="none" fill-rule="evenodd">
        <g id="logo-3d" transform="translate(7.000000, 7.000000)" fill-rule="nonzero">
            <g id="Group" filter="url(#filter-1)">
                <path d="M36.5,19.2 L37,19.8 C36.8,19.6 36.6,19.4 36.5,19.2 Z" id="Shape" fill="#E5E5E5"></path>
                <path d="M37.5,20.4 L37.8,20.8 C37.8,20.7 37.7,20.6 37.5,20.4 Z" id="Shape" fill="#E5E5E5"></path>
                <polygon id="Shape" fill="#E5E5E5" points="45.3 11.6 45.3 11.6 45.4 11.6 34.5 3.1"></polygon>
                <path d="M33.9,16.2 L35.7,18.3 C35.1,17.6 34.5,16.9 33.9,16.2 Z" id="Shape" fill="#E5E5E5"></path>
                <polygon id="Shape" fill="#E5E5E5" points="45.3 11.6 45.4 11.6 45.4 11.6"></polygon>
                <path d="M32.9,28.2 L29.4,25.8 L27.4,8.6 C26.8,7.9 23.2,0.9 23.2,0.9 L18.5,11.4 L23.2,30.6 L24.9,38.9 L32.9,28.2 Z" id="Shape" fill="#E5E5E5"></path>
                <polygon id="Shape" fill="#6D6B6B" points="49.1 26.2 45.3 11.6 38.1 21.2 32.9 28.2 32.9 28.2 25 38.9 24.4 39.6 21.8 43.5 21.5 44 10.1 60.7 49.1 26.1"></polygon>
                <polygon id="Shape" fill="#000000" opacity="0.78" points="6.2 74.1 21 64.7 30.3 58.7"></polygon>
                <polygon id="Shape" fill="#000000" opacity="0.78" points="6.1 74.1 6.2 74.1 6.2 74.1"></polygon>
                <polygon id="Shape" fill="#E5E5E5" points="56.9 96 56.9 96 62.1 93 61.4 91.7 64.5 91.7 66.1 88.5 65.7 88.3 63.8 85.7 56.1 94.8 56.1 94.8 53.4 98 41.8 96.5 53.4 98 53.4 98"></polygon>
                <path d="M37.9,20.8 L37.6,20.4 C37.4,20.2 37.2,20 37,19.7 L36.5,19.1 C36.3,18.8 36,18.5 35.7,18.2 L33.9,16.1 C33.7,15.8 33.4,15.6 33.2,15.3 L32.1,14 C32,13.9 31.9,13.7 31.8,13.6 L31.6,13.3 C31.3,12.9 31,12.5 30.7,12.2 L29.9,11.3 C29.9,11.3 29.8,11.2 29.8,11.2 L29,10.2 C28.7,9.9 28.4,9.5 28.2,9.3 C28,9.1 27.9,8.9 27.8,8.8 C27.7,8.7 27.6,8.6 27.6,8.6 L29.6,25.8 L33.1,28.2 L38.3,21.2 C38.1,21.2 38.1,21.1 37.9,20.8 C37.9,20.9 37.9,20.9 37.9,20.8 Z" id="Shape" fill="#000000"></path>
                <polygon id="Shape" fill="#474747" points="45.3 11.6 49.1 26.2 53.4 42.2 57.4 10.8 57.4 10.8 45.4 11.6"></polygon>
                <polygon id="Shape" fill="#000000" opacity="0.63" points="37.9 72.7 26 86.3 25.9 86.2 26 86.3"></polygon>
                <polygon id="Shape" fill="#000000" opacity="0.78" points="25.9 86.2 26 86.3 37.9 72.7 21 64.7"></polygon>
                <polygon id="Shape" fill="#000000" opacity="0.63" points="25.9 86.2 26 86.3 37.9 72.7 21 64.7"></polygon>
                <polygon id="Shape" fill="#000000" points="21 64.7 6.2 74.1 6.2 74.1 6.1 74.2 14.4 79.2 14.4 79.2 26 86.3 25.9 86.2"></polygon>
                <path d="M46.9,62.6 L43.2,66.6 L52.2,70.4 L52.2,65.2 C50.3,64.8 48.5,63.8 46.9,62.6 Z" id="Shape" fill="#161616"></path>
                <path d="M63.6,60.3 L59,49.4 L58.4,48.2 L55.5,52.2 C52.5,51 48.2,51.3 41.7,55.6 L39.4,55.4 L39.3,55.4 L30.2,58.8 L21,64.7 L37.9,72.7 L43.2,66.6 L46.9,62.6 C48.5,63.8 50.3,64.8 52.3,65.2 L52.3,70.4 L63.9,61 L63.6,60.3 Z M52.2,62.3 C52.1,62.3 51.9,62.2 51.8,62.2 C51.6,62.1 51.5,62 51.3,62 C51.2,61.9 51.1,61.9 51,61.8 C50.9,61.7 50.7,61.6 50.6,61.5 C50.5,61.4 50.4,61.4 50.3,61.3 C50.2,61.2 50.1,61 50,60.9 C49.9,60.8 49.8,60.7 49.8,60.6 C49.7,60.5 49.6,60.3 49.6,60.2 C49.5,60.1 49.5,60 49.4,59.8 C49.3,59.7 49.3,59.5 49.3,59.4 C49.2,59.2 49.2,59.1 49.2,58.9 C49.2,58.8 49.2,58.7 49.1,58.5 C49.1,58.3 49,58.2 49,58 C49,58 49,58 49,58 C49,57.9 49,57.9 49,57.8 C49,55.3 51.1,53.2 53.6,53.2 C56.1,53.2 58.2,55.3 58.2,57.8 C58.2,57.9 58.2,57.9 58.2,58 C58.2,58 58.2,58 58.2,58 C58.2,58.2 58.1,58.4 58.1,58.7 C58.1,58.7 58.1,58.8 58.1,58.8 C58,59.1 58,59.3 57.9,59.6 C57.9,59.6 57.9,59.7 57.9,59.7 C57.8,59.9 57.7,60.2 57.5,60.4 C57.5,60.4 57.5,60.5 57.4,60.5 C57.3,60.7 57.1,60.9 56.9,61.1 C56.9,61.1 56.9,61.2 56.8,61.2 C56.6,61.4 56.4,61.5 56.2,61.7 C56.2,61.7 56.1,61.7 56.1,61.8 C55.9,61.9 55.7,62.1 55.4,62.2 C55.4,62.2 55.3,62.2 55.3,62.2 C55,62.3 54.8,62.4 54.5,62.4 C54.5,62.4 54.5,62.4 54.4,62.4 C54.1,62.5 53.8,62.5 53.5,62.5 C53.5,62.5 53.5,62.5 53.5,62.5 C53.5,62.5 53.5,62.5 53.5,62.5 C53.4,62.5 53.4,62.5 53.3,62.5 C53.1,62.5 52.8,62.5 52.6,62.4 C52.5,62.4 52.4,62.4 52.2,62.3 Z" id="Shape" fill="#000000"></path>
                <path d="M55.6,52.2 L58.5,48.2 L39.5,55.3 L41.8,55.5 C48.2,51.3 52.6,51 55.6,52.2 Z" id="Shape" fill="#161616"></path>
                <polygon id="Shape" fill="#161616" points="66.4 68 66.2 67.1 64.9 63.3 63.9 61 52.3 70.4 62 68.8"></polygon>
                <polygon id="Shape" fill="#4C4C4C" points="43.3 66.6 37.9 72.6 37.9 72.7 26 86.3 52.3 70.4"></polygon>
                <polygon id="Shape" fill="#6D6B6B" points="26 86.3 30.8 89.3 31 89.5 41.8 96.5 52.3 70.4"></polygon>
                <polygon id="Shape" fill="#939393" points="52.3 70.4 41.8 96.5 53.4 98"></polygon>
                <polygon id="Shape" fill="#BCBCBC" points="52.3 70.4 53.4 98 62 68.8"></polygon>
                <path d="M65.4,78.2 L66.2,74.9 C66.1,73.4 66.5,68 66.5,68 L62,68.8 L53.4,98 L56.2,94.8 L63.9,85.7 L62.5,83.8 L65.4,78.2 Z" id="Shape" fill="#D8D6D6"></path>
                <path d="M66.2,74.9 L67.1,71 L68.4,75.5 L66.4,68 C66.4,68 66.1,73.5 66.2,74.9 Z" id="Shape" fill="#666666"></path>
                <polygon id="Shape" fill="#D8D6D6" points="29.2 55.2 10 60.8 7.7 68.8 6.2 74.1 6.2 74.1 6.1 74.2 30.7 54.3"></polygon>
                <polygon id="Shape" fill="#BCBCBC" points="58.5 48.2 58.6 48.2 75.6 41.9 66.3 36.9 53.4 42.2 30.7 54.3 58.5 48.2"></polygon>
                <polygon id="Shape" fill="#E5E5E5" points="105.9 11.6 105.9 11.6 116.7 3.1 105.8 11.6"></polygon>
                <polygon id="Shape" fill="#E5E5E5" points="121.8 25.8 118.3 28.2 126.2 38.9 127.9 30.6 132.6 11.4 127.9 0.9 123.7 8.6"></polygon>
                <polygon id="Shape" fill="#9B9B9B" points="132.4 48.6 140.5 59.9 134.2 50.6 133.5 50.2"></polygon>
                <polygon id="Shape" fill="#9B9B9B" points="126.4 40.1 128.7 43.5 130 44.5 129.4 43.6 129.1 43.5"></polygon>
                <polygon id="Shape" fill="#9B9B9B" points="102.2 25.5 102.2 25.5 120.4 54.3 123.8 55.1 141.1 60.8 141.1 60.7"></polygon>
                <polygon id="Shape" fill="#9B9B9B" points="117.9 28.4 126.4 40.1 127.5 40.7 126.7 39.6 126.2 38.9 118.3 28.2"></polygon>
                <polygon id="Shape" fill="#E5E5E5" points="95.1 94.8 87.3 85.6 85.8 87.8 85.3 88.1 86.7 91.7 89.8 91.1 88.7 92.8 94.3 96 97.8 98"></polygon>
                <polygon id="Shape" fill="#000000" points="118.3 28.2 121.8 25.8 123.7 8.6 112.9 21.3 117.9 28.4"></polygon>
                <polygon id="Shape" fill="#474747" points="102.2 25.5 105.9 11.6 98 11.2 97.8 11.1 94.6 10.9 97.8 42.2"></polygon>
                <polygon id="Shape" fill="#898989" points="82.1 10.1 75.6 9 69.1 10.1 75.6 41.9"></polygon>
                <polygon id="Shape" fill="#000000" opacity="0.63" points="125.2 86.3 113.3 72.7 113.2 72.7 125.2 86.3 125.2 86.2"></polygon>
                <polygon id="Shape" fill="#000000" opacity="0.78" points="125.2 86.3 125.2 86.2 130.2 64.7 113.3 72.7"></polygon>
                <polygon id="Shape" fill="#000000" opacity="0.63" points="125.2 86.3 125.2 86.2 130.2 64.7 113.3 72.7"></polygon>
                <polygon id="Shape" fill="#000000" points="125.2 86.2 125.2 86.3 136.9 79.2 145 74.2 130.2 64.7"></polygon>
                <path d="M98.8,65.2 L98.8,70.4 L107.8,66.6 L104.3,62.7 C102.8,63.9 100.9,64.9 98.8,65.2 Z" id="Shape" fill="#161616"></path>
                <path d="M98.8,70.4 L98.8,65.2 C100.8,64.9 102.7,63.9 104.3,62.7 L107.8,66.6 L113.1,72.7 L130,64.7 L120.7,58.8 L111.6,55.4 L111.5,55.4 L109.5,55.6 C102.9,51.3 98.4,51 95.5,52.4 L92.5,48.3 L86.5,60.6 L98.8,70.4 Z M97.9,53.4 C100.4,53.4 102.5,55.5 102.5,58 C102.5,58.1 102.5,58.1 102.5,58.2 C102.5,58.2 102.5,58.2 102.5,58.2 C102.5,58.4 102.5,58.5 102.4,58.7 C102.4,58.8 102.4,58.9 102.3,59.1 C102.3,59.3 102.2,59.4 102.2,59.6 C102.2,59.7 102.1,59.9 102.1,60 C102,60.1 102,60.2 101.9,60.4 C101.8,60.5 101.8,60.7 101.7,60.8 C101.6,60.9 101.5,61 101.5,61.1 C101.4,61.2 101.3,61.4 101.2,61.5 C101.1,61.6 101,61.6 100.9,61.7 C100.8,61.8 100.6,61.9 100.5,62 C100.4,62.1 100.3,62.1 100.2,62.2 C100,62.3 99.9,62.4 99.7,62.4 C99.6,62.5 99.4,62.5 99.3,62.5 C99.1,62.5 99,62.6 98.8,62.6 C98.6,62.6 98.3,62.7 98.1,62.7 C98,62.7 98,62.7 97.9,62.7 C97.9,62.7 97.9,62.7 97.9,62.7 C97.9,62.7 97.9,62.7 97.9,62.7 C97.6,62.7 97.3,62.7 97,62.6 C97,62.6 97,62.6 96.9,62.6 C96.6,62.5 96.4,62.5 96.1,62.4 C96.1,62.4 96,62.4 96,62.4 C95.8,62.3 95.5,62.2 95.3,62 C95.3,62 95.2,62 95.2,61.9 C95,61.8 94.8,61.6 94.6,61.4 C94.6,61.4 94.6,61.3 94.5,61.3 C94.3,61.1 94.2,60.9 94,60.7 C94,60.7 94,60.6 93.9,60.6 C93.8,60.4 93.6,60.2 93.5,59.9 C93.5,59.9 93.5,59.8 93.5,59.8 C93.4,59.6 93.3,59.3 93.3,59 C93.3,59 93.3,58.9 93.3,58.9 C93.3,58.7 93.2,58.5 93.2,58.2 C93.2,58.2 93.2,58.2 93.2,58.2 C93.2,58.1 93.2,58.1 93.2,58 C93.3,55.4 95.3,53.4 97.9,53.4 Z" id="Shape" fill="#000000"></path>
                <path d="M109.7,55.5 L111.7,55.3 L92.7,48.2 L95.7,52.3 C98.6,50.9 103,51.2 109.7,55.5 Z" id="Shape" fill="#161616"></path>
                <polygon id="Shape" fill="#161616" points="84.7 68 89.2 68.8 98.8 70.4 86.7 60.5"></polygon>
                <polygon id="Shape" fill="#4C4C4C" points="113.2 72.6 107.9 66.6 98.8 70.4 125.2 86.3 113.2 72.7"></polygon>
                <polygon id="Shape" fill="#6D6B6B" points="109.4 96.5 121.4 88.8 121.4 88.8 125.2 86.3 98.8 70.4"></polygon>
                <polygon id="Shape" fill="#939393" points="97.8 98 103.6 97.3 109.4 96.5 98.8 70.4"></polygon>
                <polygon id="Shape" fill="#BCBCBC" points="89.2 68.8 97.8 98 98.8 70.4"></polygon>
                <path d="M84.7,68 C84.7,68 84.9,70.9 85,73 L86.1,77.6 L89,83.1 L87.3,85.5 L95.1,94.6 L97.9,97.8 L89.3,68.6 L84.7,68 Z" id="Shape" fill="#D8D6D6"></path>
                <path d="M84.4,70.5 L85,73 C84.9,70.9 84.7,68 84.7,68 L83.1,74.5 L84.4,70.5 Z" id="Shape" fill="#666666"></path>
                <polygon id="Shape" fill="#D8D6D6" points="141.2 60.9 141.2 60.9 141.1 60.8 141.1 60.8 123.8 55.1 120.4 54.3 145 74.2 145 74.1 145 74.1"></polygon>
                <polygon id="Shape" fill="#BCBCBC" points="84.9 36.9 75.6 41.9 92.7 48.2 120.4 54.3 97.8 42.2"></polygon>
                <polygon id="Shape" fill="#161616" points="82.1 78.8 83.2 74.5 82 78.1 80.4 84.3 82.1 78.8 82.1 79 80.4 84.3 85.8 87.8 87.3 85.6 89 83.2 86.1 77.7 85 73.1 84.4 70.5"></polygon>
                <polygon id="Shape" fill="#D8D6D6" points="63.6 60.3 63.9 61 64.9 63.3 66.2 67.1 66.5 68 68.5 75.5 75.6 72.1 75.6 61.3 58.6 48.3 59.1 49.4"></polygon>
                <polygon id="Shape" fill="#D8D6D6" points="58.5 48.2 58.6 48.2"></polygon>
                <polygon id="Shape" fill="#CCCCCC" points="75.6 72.1999992 83.2 74.5999992 84.7 68.0999992 86.7 60.5999992 92.7 48.2999992 75.6 61.3999992"></polygon>
                <polygon id="Shape" fill="#E5E5E5" points="58.6 48.2 58.5 48.2 58.5 48.2 58.6 48.3 75.6 61.3 92.7 48.2 75.6 41.9"></polygon>
                <polygon id="Shape" fill="#AAAAAA" points="6.2 74.1 30.3 58.7 39.4 55.3 39.5 55.3 58.5 48.2 30.7 54.3 53.4 42.2 49.1 26.2 49.1 26.1 29.2 55.2 30.7 54.3 6.1 74.2"></polygon>
                <polygon id="Shape" fill="#AAAAAA" points="92.7 48.2 111.7 55.3 111.7 55.3 120.9 58.7 130.2 64.7 145 74.2 120.4 54.3"></polygon>
                <polygon id="Shape" fill="#9B9B9B" points="49.1 26.1 10.1 60.7 10 60.8 29.2 55.2"></polygon>
                <polygon id="Shape" fill="#6D6B6B" points="128.7 43.5 126.4 40.1 126.4 40.1 117.9 28.4 112.9 21.3 112.7 21.6 105.9 11.6 102.2 25.5 102.2 25.5 141.1 60.7 141.1 60.8 140.5 59.9 132.4 48.6"></polygon>
                <polygon id="Shape" fill="#AAAAAA" points="102.2 25.5 97.8 42.2 120.4 54.3"></polygon>
                <polygon id="Shape" fill="#AAAAAA" points="66.3 36.9 69.1 10.1 53.4 42.2"></polygon>
                <polygon id="Shape" fill="#AAAAAA" points="97.8 42.2 82.1 10.1 84.9 36.9"></polygon>
                <polygon id="Shape" fill="#939393" points="75.6 41.9 69.1 10.1 66.3 36.9"></polygon>
                <polygon id="Shape" fill="#939393" points="84.9 36.9 82.1 10.1 75.6 41.9"></polygon>
                <polygon id="Shape" fill="#353535" points="53.4 42.2 69.1 10.1 57.4 10.8 57.4 10.8"></polygon>
                <polygon id="Shape" fill="#353535" points="94.6 10.9 89.9 10.6 89.9 10.6 82.1 10.1 97.8 42.2"></polygon>
                <path d="M27.6,8.8 C27.7,8.9 27.9,9.1 28,9.3 C28.2,9.6 28.5,9.9 28.8,10.2 L29.6,11.2 C29.6,11.2 29.7,11.3 29.7,11.3 L30.5,12.2 C30.8,12.6 31.1,12.9 31.4,13.3 L31.6,13.6 C31.7,13.7 31.8,13.8 31.9,14 L33,15.3 C33.2,15.6 33.5,15.8 33.7,16.1 C34.3,16.8 34.9,17.5 35.5,18.2 C35.8,18.5 36.1,18.9 36.3,19.1 C36.5,19.3 36.6,19.5 36.8,19.7 C37,20 37.2,20.2 37.4,20.4 C37.5,20.5 37.6,20.7 37.7,20.8 C37.7,20.8 37.7,20.9 37.8,20.9 C37.9,21.1 38,21.2 38,21.2 L45.1,11.6 L34.5,3.1 L23.3,0.9 C23.3,0.9 26.9,7.9 27.5,8.6 C27.5,8.6 27.5,8.7 27.6,8.8 Z" id="Shape" fill="#CCCCCC"></path>
                <polygon id="Shape" fill="#CCCCCC" points="105.9 11.6 112.7 21.6 112.9 21.3 123.7 8.6 127.9 0.9 116.7 3.1"></polygon>
                <path d="M53.6,62.6 C53.6,62.6 53.6,62.6 53.6,62.6 C53.5,62.6 53.5,62.6 53.4,62.6 C53.5,62.6 53.5,62.6 53.6,62.6 Z" id="Shape" fill="#57448C"></path>
                <g id="eye-left">    
                    <path d="M58.2,58.2 C58.2,58.1 58.2,58.1 58.2,58 C58.2,55.5 56.1,53.4 53.6,53.4 C51.1,53.4 49,55.4 49,58 C49,58.1 49,58.1 49,58.2 C50.2,57.1 51.8,56.4 53.6,56.4 C55.4,56.3 57,57 58.2,58.2 Z" id="Shape" fill="#57448C"></path>
                    <path d="M53.4,62.5 C53.5,62.5 53.5,62.5 53.6,62.5 C53.6,62.5 53.6,62.5 53.6,62.5 C53.9,62.5 54.2,62.5 54.5,62.4 C54.5,62.4 54.5,62.4 54.6,62.4 C54.9,62.3 55.1,62.3 55.4,62.2 C55.4,62.2 55.5,62.2 55.5,62.2 C55.7,62.1 56,62 56.2,61.8 C56.2,61.8 56.3,61.8 56.3,61.7 C56.5,61.6 56.7,61.4 56.9,61.2 C56.9,61.2 56.9,61.1 57,61.1 C57.2,60.9 57.3,60.7 57.5,60.5 C57.5,60.5 57.5,60.4 57.6,60.4 C57.7,60.2 57.9,60 58,59.7 C58,59.7 58,59.6 58,59.6 C58.1,59.4 58.2,59.1 58.2,58.8 C58.2,58.8 58.2,58.7 58.2,58.7 C58.2,58.5 58.3,58.3 58.3,58 C58.3,58 58.3,58 58.3,58 C57.1,56.8 55.5,56.1 53.7,56.1 C51.9,56.1 50.3,56.8 49.1,57.9 C49.1,57.9 49.1,57.9 49.1,57.9 C49.1,58.1 49.1,58.2 49.2,58.4 C49.2,58.5 49.2,58.6 49.3,58.8 C49.3,59 49.4,59.1 49.4,59.3 C49.4,59.4 49.5,59.6 49.5,59.7 C49.6,59.8 49.6,59.9 49.7,60.1 C49.8,60.2 49.8,60.4 49.9,60.5 C50,60.6 50.1,60.7 50.1,60.8 C50.2,60.9 50.3,61.1 50.4,61.2 C50.5,61.3 50.6,61.3 50.7,61.4 C50.8,61.5 51,61.6 51.1,61.7 C51.2,61.8 51.3,61.8 51.4,61.9 C51.6,62 51.7,62.1 51.9,62.1 C52,62.2 52.2,62.2 52.3,62.2 C52.5,62.2 52.6,62.3 52.8,62.3 C52.9,62.5 53.2,62.5 53.4,62.5 Z M54.1,56.3 C54.8,56.3 55.4,56.9 55.4,57.6 C55.4,58.3 54.8,59 54.1,59 C53.4,59 52.8,58.4 52.8,57.7 C52.8,57 53.3,56.3 54.1,56.3 Z" id="Shape" fill="#E2E2E2"></path>
                    <circle id="Oval" fill="#000000" cx="54.1" cy="57.7" r="1.3"></circle>
                </g>    
                <g id="eye-right">
                    <path d="M93.3,58 C93.3,58.1 93.3,58.1 93.3,58.2 C94.5,57 96.1,56.3 97.9,56.3 C99.7,56.3 101.3,57 102.5,58.1 C102.5,58 102.5,58 102.5,57.9 C102.5,55.4 100.4,53.3 97.9,53.3 C95.4,53.3 93.3,55.4 93.3,58 Z" id="Shape" fill="#57448C"></path>
                    <path d="M97.9,62.6 C98,62.6 98,62.6 98.1,62.6 C98,62.6 98,62.6 97.9,62.6 C97.9,62.6 97.9,62.6 97.9,62.6 Z" id="Shape" fill="#57448C"></path>
                    <path d="M93.3,58.2 C93.3,58.2 93.3,58.2 93.3,58.2 C93.3,58.4 93.3,58.7 93.4,58.9 C93.4,58.9 93.4,59 93.4,59 C93.5,59.3 93.5,59.5 93.6,59.8 C93.6,59.8 93.6,59.9 93.6,59.9 C93.7,60.1 93.8,60.4 94,60.6 C94,60.6 94,60.7 94.1,60.7 C94.2,60.9 94.4,61.1 94.6,61.3 C94.6,61.3 94.6,61.4 94.7,61.4 C94.9,61.6 95.1,61.7 95.3,61.9 C95.3,61.9 95.4,61.9 95.4,62 C95.6,62.1 95.8,62.3 96.1,62.4 C96.1,62.4 96.2,62.4 96.2,62.4 C96.5,62.5 96.7,62.6 97,62.6 C97,62.6 97,62.6 97.1,62.6 C97.4,62.7 97.7,62.7 98,62.7 C98,62.7 98,62.7 98,62.7 C98.1,62.7 98.2,62.7 98.2,62.7 C98.4,62.7 98.7,62.7 98.9,62.6 C99.1,62.6 99.2,62.5 99.4,62.5 C99.5,62.5 99.7,62.4 99.8,62.4 C100,62.3 100.1,62.2 100.3,62.2 C100.4,62.1 100.5,62.1 100.6,62 C100.7,61.9 100.9,61.8 101,61.7 C101.1,61.6 101.2,61.6 101.3,61.5 C101.4,61.4 101.5,61.2 101.6,61.1 C101.7,61 101.8,60.9 101.8,60.8 C101.9,60.7 102,60.5 102,60.4 C102.1,60.3 102.1,60.2 102.2,60 C102.3,59.9 102.3,59.7 102.3,59.6 C102.4,59.4 102.4,59.3 102.4,59.1 C102.4,59 102.4,58.9 102.5,58.7 C102.5,58.5 102.6,58.4 102.6,58.2 C102.6,58.2 102.6,58.2 102.6,58.2 C101.4,57.1 99.8,56.4 98,56.4 C96.1,56.3 94.5,57 93.3,58.2 Z M98.8,57.7 C98.8,58.4 98.2,59 97.5,59 C96.8,59 96.2,58.4 96.2,57.7 C96.2,57 96.8,56.4 97.5,56.4 C98.2,56.4 98.8,56.9 98.8,57.7 Z" id="Shape" fill="#E2E2E2"></path>
                    <circle id="Oval" fill="#000000" cx="97.4" cy="57.7" r="1.3"></circle>
                    <polygon id="Shape" fill="#161616" points="68.4 75.5 67.1 71 66.2 74.9 65.4 78.2 62.5 83.7 63.8 85.7 65.7 88.3 71 84.8"></polygon>
                    <polygon id="Shape" fill="#000000" points="82 78.1 83.2 74.5 75.6 72.1 68.5 75.5 68.4 75.5 68.4 75.5 71 84.8 65.7 88.3 66.1 88.5 66.2 88.5 68.4 89 68.4 89 75.6 91.1 83.3 89.3 85.3 88.1 85.8 87.8 80.4 84.3"></polygon>
                </g>    
                <polygon id="Shape" fill="#1E1E1E" points="84.4 70.5 83.2 74.5 82.1 78.8"></polygon>
                <polygon id="Shape" fill="#1E1E1E" points="82.1 78.8 80.4 84.3 82.1 79"></polygon>
                <polygon id="Shape" fill="#000000" points="64.5 91.7 67.8 96 75.6 98.5 83.2 96.3 86.7 91.7 74.9 96.3"></polygon>
                <polygon id="Shape" fill="#282828" points="74.5 93.7 74.5 93.7 64.5 91.7 74.9 96.3 86.7 91.7 74.9 93.8"></polygon>
                <polygon id="Shape" fill="#282828" points="87.3 95.1 88.7 92.8 89.8 91.1 86.7 91.7 83.2 96.3"></polygon>
                <polygon id="Shape" fill="#282828" points="61.4 91.7 62.1 93 62.1 93 63.1 94.6 67.8 96 64.5 91.7"></polygon>
                <polygon id="Shape" fill="#F4F4F4" points="75.6 91.1 68.4 89 68.4 89 66.2 88.5 66.1 88.5 64.5 91.7 74.5 93.7 74.5 93.7 86.7 91.7 85.3 88.1 83.3 89.3"></polygon>
                <polygon id="Shape" fill="#F4F4F4" points="0.7 73.6 7.7 68.8 10 60.8"></polygon>
                <polygon id="Shape" fill="#939292" points="2.7 64 15.6 52.6 21.5 44 21.8 43.5"></polygon>
                <polygon id="Shape" fill="#898989" points="8.4 48.1 21.8 43.5 24.4 39.6"></polygon>
                <polygon id="Shape" fill="#898989" points="126.4 40.1 129.1 43.5 129.4 43.6 141.6 48.1 127.5 40.7"></polygon>
                <polygon id="Shape" fill="#939292" points="132.4 48.6 133.5 50.2 134.2 50.6 149.9 60.3 130 44.5 128.7 43.5"></polygon>
                <polygon id="Shape" fill="#F4F4F4" points="141.2 60.9 143.2 68 154.9 73.6 141.1 60.8"></polygon>
                <polygon id="Shape" fill="#606060" points="57.4 10.8 64.6 10.4 73.3 2.3 57.4 10.8"></polygon>
                <polygon id="Shape" fill="#606060" points="89.9 10.6 73.3 5 82.1 10.1"></polygon>
                <polygon id="Shape" fill="#898989" points="45.3 11.6 45.3 11.6 45.4 11.6 53.3 11 62.5 5 45.4 11.6"></polygon>
                <polygon id="Shape" fill="#898989" points="105.9 11.6 105.9 11.6 105.8 11.6 89.2 5 97.8 11.1 98 11.2"></polygon>
                <polygon id="Shape" fill="#D8D6D6" points="62.1 93 56.9 96 53.4 98 53.4 98 68.4 107 63.1 94.6"></polygon>
                <polygon id="Shape" fill="#E5E5E5" points="68.4 107 75.6 107 63.1 94.6"></polygon>
                <polygon id="Shape" fill="#E5E5E5" points="75.6 107 80.4 107 87.3 95.1"></polygon>
                <polygon id="Shape" fill="#F4F4F4" points="83.2 96.3 75.6 98.5 67.8 96 63.1 94.6 75.6 107 87.3 95.1"></polygon>
                <polygon id="Shape" fill="#D8D6D6" points="88.7 92.8 87.3 95.1 80.4 107 97.8 98 94.3 96"></polygon>
                <polygon id="Shape" fill="#939292" points="123.7 96 145 74.2 145 74.2 136.9 79.2"></polygon>
                <polygon id="Shape" fill="#939292" points="6.1 74.2 6.2 74.2 30.7 98 14.4 79.2 14.4 79.2"></polygon>
                <polygon id="Shape" fill="#939292" points="26 86.3 35.7 96 31 89.5 30.8 89.3"></polygon>
                <polygon id="Shape" fill="#939292" points="121.4 88.8 116.7 96 125.2 86.3"></polygon>
                <polygon id="Shape" fill="#939292" points="46.5 97.1 41.8 96.5 55.3 101.8"></polygon>
                <polygon id="Shape" fill="#939292" points="93.8 102.5 109.4 96.5 103.6 97.3"></polygon>
            </g>
        </g>
    </g>
</svg>