<?xml version="1.0" encoding="utf-8"?>
<!-- Generator: Adobe Illustrator 15.1.0, SVG Export Plug-In . SVG Version: 6.00 Build 0)  -->
<!DOCTYPE svg PUBLIC "-//W3C//DTD SVG 1.1//EN" "http://www.w3.org/Graphics/SVG/1.1/DTD/svg11.dtd">
<svg version="1.1" xmlns="http://www.w3.org/2000/svg" xmlns:xlink="http://www.w3.org/1999/xlink" x="0px" y="0px"
	 width="548.148px" height="418.519px" viewBox="0 0 548.148 418.519" enable-background="new 0 0 548.148 418.519"
	 xml:space="preserve">
<g id="Layer_2">
	<rect x="1311.111" y="1000" fill="#66499E" width="1607.407" height="1125.926"/>
</g>
<g id="Layer_1">
	<path fill="#FFFFFF" d="M522.388,288.534l-23.207-13.651c0,0-103.066-49.145-124.908-60.065s-32.081-24.572-52.48-2.048
		c-20.402,22.524-37.615,14.334-26.694-27.302c10.921-41.637,62.793-7.509,62.793-7.509
		c258.007,146.751,105.114-9.556,105.114-9.556v-9.556c70.986-245.721-75.765-96.241-75.765-96.241H276.663h-1.359h-110.58
		c0,0-146.75-149.48-75.764,96.241v9.556c0,0-152.891,156.307,105.113,9.556c0,0,51.875-34.128,62.796,7.509
		c10.921,41.636-6.292,49.826-26.694,27.302s-30.641-8.873-52.482,2.048S52.784,274.882,52.784,274.882l-23.207,13.651
		c0,0-22.524,9.556,10.921,26.619c33.445,17.064,129.004,64.161,129.004,64.161s72.351,34.811,27.984-13.651
		c0,0-11.604-27.985,8.19-46.414l17.064-16.381c0,0,9.641-7.509,30.075,15.016c0,0,3.37,10.238-4.138,19.111
		c-7.509,8.874-26.535,35.493,4.138,48.462h22.487h1.359h22.487c30.673-12.969,11.646-39.588,4.138-48.462
		c-7.508-8.873-4.138-19.111-4.138-19.111c20.435-22.524,30.075-15.016,30.075-15.016l17.062,16.381
		c19.794,18.429,8.19,46.414,8.19,46.414c-44.363,48.462,27.985,13.651,27.985,13.651s95.558-47.097,129.003-64.161
		C544.911,298.089,522.388,288.534,522.388,288.534z M207.475,270.019c-11.876,0-21.501-9.625-21.501-21.501
		c0-11.875,9.625-21.5,21.501-21.5c11.875,0,21.5,9.625,21.5,21.5C228.975,260.394,219.35,270.019,207.475,270.019z
		 M343.983,270.019c-11.873,0-21.498-9.625-21.498-21.501c0-11.875,9.625-21.5,21.498-21.5c11.881,0,21.5,9.625,21.5,21.5
		C365.483,260.394,355.864,270.019,343.983,270.019z"/>
</g>
<g id="Layer_3">
	<g>
		<path fill="#66499E" d="M872.688,708.331c-13.69-8.637-20.531-21.854-20.531-39.65c0-9.408,1.624-16.594,4.876-21.559
			c3.248-4.961,8.04-7.441,14.372-7.441c4.619,0,8.381,1.197,11.292,3.592c2.907,2.398,4.363,5.479,4.363,9.24
			c0,3.424-0.257,6.416-0.771,8.982c0,0.686-0.128,1.885-0.385,3.592c-0.257,1.713-0.385,3.51-0.385,5.391
			c0,7.699,3.89,13.434,11.677,17.193c7.783,3.766,18.691,5.646,32.722,5.646c14.54,0,25.921-2.605,34.134-7.826
			c8.212-5.219,12.318-12.533,12.318-21.943c0-5.814-1.885-10.82-5.646-15.014c-3.766-4.191-8.47-7.699-14.115-10.523
			c-5.646-2.822-13.603-6.287-23.868-10.393c-13.177-5.133-23.912-10.01-32.208-14.629c-8.301-4.619-15.398-10.908-21.302-18.863
			c-5.902-7.957-8.854-17.836-8.854-29.643c0-12.318,3.293-23.266,9.881-32.85c6.585-9.58,16.08-17.022,28.487-22.328
			c12.403-5.301,26.987-7.956,43.758-7.956c12.487,0,23.951,1.841,34.39,5.519c10.435,3.681,18.775,9.283,25.022,16.81
			c6.244,7.531,9.368,16.771,9.368,27.718c0,10.777-1.629,18.906-4.877,24.381c-3.252,5.477-8.044,8.213-14.372,8.213
			c-4.451,0-8.172-1.369-11.163-4.107c-2.996-2.734-4.492-5.986-4.492-9.752c0-3.248,0.257-6.244,0.771-8.982
			c0.513-5.133,0.77-8.381,0.77-9.752c0-7.187-3.509-12.661-10.522-16.426c-7.018-3.761-15.743-5.646-26.177-5.646
			c-14.717,0-25.965,2.694-33.748,8.084c-7.788,5.39-11.678,12.96-11.678,22.712c0,6.504,2.009,12.063,6.031,16.682
			c4.018,4.621,9.022,8.471,15.014,11.549c5.986,3.08,14.371,6.762,25.15,11.037c13.001,5.305,23.438,10.096,31.311,14.371
			c7.867,4.279,14.584,10.098,20.146,17.451c5.558,7.359,8.341,16.426,8.341,27.205c0,20.189-7.659,35.717-22.97,46.58
			c-15.314,10.867-35.802,16.297-61.466,16.297C904.596,721.292,886.374,716.974,872.688,708.331z"/>
		<path fill="#66499E" d="M1178.733,665.087c1.283,2.053,1.925,4.877,1.925,8.469c0,6.846-1.628,12.15-4.876,15.912
			c-7.872,9.07-15.956,16.514-24.253,22.328c-8.301,5.818-17.753,8.727-28.359,8.727c-8.726,0-15.314-2.523-19.761-7.572
			c-4.451-5.043-6.673-12.357-6.673-21.941c0-4.789,1.194-13.346,3.593-25.664c2.222-10.779,3.336-18.223,3.336-22.328
			c0-2.736-0.942-4.107-2.822-4.107c-2.226,0-5.39,2.867-9.496,8.598c-4.106,5.734-8.213,13.307-12.319,22.713
			c-4.105,9.412-7.442,19.336-10.009,29.771c-3.252,13.689-11.292,20.531-24.124,20.531c-5.133,0-8.514-1.838-10.138-5.518
			c-1.628-3.678-2.438-10.307-2.438-19.891c0-5.473,0.085-9.836,0.257-13.088l0.257-20.531c0-26.348,2.695-53.807,8.084-82.383
			c5.39-28.572,13.346-52.568,23.868-71.989c10.522-19.416,23.138-29.129,37.854-29.129c7.868,0,14.244,3.381,19.12,10.138
			c4.876,6.761,7.314,15.527,7.314,26.306c0,17.283-5.049,35.204-15.143,53.766c-10.097,18.566-26.522,40.254-49.275,65.059
			c-0.513,8.898-0.77,18.055-0.77,27.461c5.646-14.539,11.934-26.389,18.863-35.545c6.93-9.15,13.771-15.695,20.531-19.633
			c6.757-3.934,12.961-5.902,18.606-5.902c11.12,0,16.682,5.563,16.682,16.682c0,6.672-1.885,18.734-5.646,36.188
			c-3.252,14.885-4.877,24.725-4.877,29.514c0,6.844,2.479,10.266,7.443,10.266c3.42,0,7.482-2.094,12.19-6.289
			c4.703-4.189,10.991-10.99,18.863-20.402c2.053-2.395,4.362-3.594,6.929-3.594C1175.693,662.007,1177.45,663.034,1178.733,665.087
			z M1086.983,516.62c-3.766,8.814-7.402,20.704-10.907,35.674c-3.509,14.973-6.376,31.27-8.598,48.889
			c10.606-12.486,19.377-26.088,26.306-40.805c6.93-14.713,10.395-28.059,10.395-40.037c0-5.474-0.602-9.664-1.797-12.576
			c-1.198-2.907-2.911-4.362-5.133-4.362C1094.17,503.403,1090.745,507.81,1086.983,516.62z"/>
		<path fill="#66499E" d="M1166.029,708.974c-6.332-7.699-9.496-17.793-9.496-30.285c0-13.686,3.164-26.646,9.496-38.881
			c6.327-12.23,14.757-22.07,25.279-29.514s21.686-11.164,33.491-11.164c3.762,0,6.288,0.73,7.571,2.182
			c1.283,1.455,2.35,4.066,3.208,7.828c3.593-0.682,7.354-1.027,11.292-1.027c8.381,0,12.575,2.996,12.575,8.982
			c0,3.594-1.283,12.15-3.85,25.664c-3.938,19.678-5.902,33.363-5.902,41.063c0,2.566,0.642,4.621,1.925,6.16
			s2.951,2.311,5.005,2.311c3.248,0,7.186-2.094,11.806-6.289c4.619-4.189,10.862-10.99,18.734-20.402
			c2.053-2.395,4.363-3.594,6.93-3.594c2.222,0,3.978,1.027,5.261,3.08s1.925,4.877,1.925,8.469c0,6.846-1.628,12.15-4.876,15.912
			c-7.018,8.727-14.46,16.084-22.328,22.072c-7.871,5.99-15.486,8.982-22.841,8.982c-5.646,0-10.823-1.926-15.527-5.775
			c-4.707-3.85-8.256-9.109-10.65-15.783c-8.898,14.373-20.106,21.559-33.62,21.559
			C1180.826,720.522,1172.356,716.673,1166.029,708.974z M1211.455,687.929c3.42-4.447,5.902-10.35,7.442-17.709l9.496-47.223
			c-7.187,0.174-13.819,2.867-19.891,8.086c-6.075,5.221-10.907,12.105-14.5,20.658c-3.593,8.559-5.39,17.625-5.39,27.205
			c0,5.305,1.067,9.238,3.208,11.805c2.138,2.566,5.089,3.85,8.854,3.85C1204.438,694.601,1208.03,692.38,1211.455,687.929z"/>
		<path fill="#66499E" d="M1400.211,665.087c1.283,2.053,1.925,4.877,1.925,8.469c0,6.846-1.628,12.15-4.876,15.912
			c-6.332,7.699-15.27,14.801-26.819,21.303c-11.549,6.504-23.911,9.752-37.084,9.752c-17.966,0-31.912-4.877-41.833-14.629
			c-9.925-9.752-14.886-23.098-14.886-40.037c0-11.805,2.479-22.797,7.443-32.979c4.96-10.176,11.846-18.262,20.659-24.252
			c8.811-5.986,18.775-8.982,29.899-8.982c9.921,0,17.876,2.951,23.867,8.854c5.987,5.904,8.982,13.904,8.982,23.996
			c0,11.807-4.234,21.943-12.703,30.412c-8.47,8.471-22.802,15.188-42.988,20.146c4.275,7.873,12.403,11.807,24.381,11.807
			c7.699,0,16.466-2.695,26.307-8.084c9.836-5.391,18.35-12.447,25.535-21.174c2.054-2.395,4.363-3.594,6.93-3.594
			C1397.172,662.007,1398.928,663.034,1400.211,665.087z M1314.236,635.829c-4.363,7.359-6.545,16.258-6.545,26.691v0.514
			c10.094-2.395,18.05-5.986,23.868-10.779c5.814-4.787,8.726-10.35,8.726-16.682c0-3.248-0.898-5.859-2.694-7.828
			c-1.797-1.965-4.234-2.951-7.314-2.951C1323.944,624.794,1318.6,628.476,1314.236,635.829z"/>
		<path fill="#66499E" d="M1483.875,665.087c1.283,2.053,1.925,4.877,1.925,8.469c0,6.846-1.628,12.15-4.877,15.912
			c-7.358,9.07-15.358,16.514-23.995,22.328c-8.642,5.818-18.438,8.727-29.386,8.727c-15.058,0-26.222-6.842-33.492-20.531
			c-7.274-13.688-10.907-31.395-10.907-53.125c0-20.873,2.695-44.656,8.084-71.348c5.39-26.689,13.346-49.616,23.868-68.78
			c10.522-19.16,23.054-28.744,37.598-28.744c8.213,0,14.669,3.81,19.377,11.421c4.704,7.615,7.058,18.522,7.058,32.722
			c0,20.363-5.646,43.975-16.938,70.834c-11.292,26.863-26.606,53.469-45.939,79.814c1.195,7.018,3.164,12.023,5.903,15.014
			c2.734,2.996,6.328,4.492,10.779,4.492c7.013,0,13.173-2.01,18.478-6.031c5.302-4.018,12.063-10.908,20.275-20.66
			c2.053-2.395,4.362-3.594,6.929-3.594C1480.835,662.007,1482.592,663.034,1483.875,665.087z M1433.701,524.704
			c-4.965,14.204-9.327,31.825-13.089,52.87c-3.766,21.043-5.818,41.234-6.159,60.566c12.146-20.018,21.814-40.076,29-60.182
			c7.187-20.104,10.779-38.453,10.779-55.05c0-13.001-2.397-19.505-7.186-19.505
			C1443.108,503.403,1438.661,510.504,1433.701,524.704z"/>
		<path fill="#66499E" d="M1601.67,665.729c1.283,2.141,1.925,4.836,1.925,8.084c0,3.938-0.602,7.018-1.796,9.238
			c-1.199,2.227-3.08,4.195-5.646,5.902l-49.275,33.107c-6.504,35.416-15.014,63.262-25.536,83.537
			c-10.521,20.275-23.911,30.412-40.164,30.412c-8.726,0-15.827-2.695-21.302-8.084c-5.478-5.389-8.212-12.447-8.212-21.174
			c0-8.043,1.836-16.256,5.518-24.637c3.677-8.385,10.522-18.01,20.531-28.873c10.009-10.867,24.165-23.314,42.475-37.34l0.77-5.904
			c1.195-6.328,2.566-15.398,4.106-27.203c-3.425,12.318-8.213,21.686-14.372,28.102s-12.663,9.625-19.505,9.625
			c-7.699,0-13.986-3.549-18.863-10.65c-4.876-7.098-7.314-15.953-7.314-26.563c0-12.832,0.854-24.594,2.566-35.289
			c1.709-10.691,4.532-22.027,8.47-34.006c1.708-5.133,4.106-8.809,7.186-11.035c3.08-2.221,7.956-3.336,14.629-3.336
			c3.762,0,6.372,0.602,7.828,1.797c1.451,1.199,2.181,2.994,2.181,5.389c0,1.371-0.942,5.992-2.822,13.859
			c-1.713,6.332-3.08,12.063-4.106,17.195c-1.372,7.018-2.566,13.73-3.594,20.146c-1.026,6.416-1.539,11.676-1.539,15.783
			c0,6.504,1.796,9.752,5.39,9.752c2.566,0,5.774-2.566,9.624-7.699s7.955-12.916,12.318-23.354
			c4.363-10.436,8.598-23.268,12.704-38.498c1.367-5.133,3.465-8.809,6.287-11.035c2.823-2.221,7.058-3.336,12.704-3.336
			c3.934,0,6.673,0.514,8.213,1.539c1.539,1.027,2.31,2.74,2.31,5.133c0,4.279-2.226,18.992-6.673,44.143l-6.673,41.32
			c13.173-9.922,26.005-18.992,38.496-27.205c2.222-1.367,4.191-2.053,5.903-2.053
			C1598.631,662.521,1600.387,663.591,1601.67,665.729z M1498.372,796.231c5.301-9.926,10.606-26.434,15.911-49.531
			c-13.177,11.119-22.713,21.256-28.615,30.412c-5.902,9.15-8.854,17.15-8.854,23.996c0,2.906,0.554,5.301,1.669,7.186
			c1.11,1.881,2.951,2.822,5.518,2.822C1488.274,811.116,1493.066,806.151,1498.372,796.231z"/>
		<path fill="#66499E" d="M1589.609,710.257c-2.655-6.842-3.979-17.793-3.979-32.852c0-22.238,3.164-43.371,9.496-63.391
			c1.54-4.959,4.062-8.598,7.57-10.906c3.505-2.311,8.426-3.465,14.757-3.465c3.421,0,5.815,0.43,7.187,1.283
			c1.367,0.857,2.053,2.482,2.053,4.877c0,2.738-1.283,8.898-3.85,18.477c-1.712,6.846-3.079,12.832-4.106,17.967
			c-1.026,5.133-1.884,11.463-2.566,18.99c5.646-14.713,11.975-26.691,18.992-35.93c7.014-9.238,13.898-15.824,20.659-19.762
			c6.757-3.934,12.961-5.902,18.606-5.902c5.475,0,9.624,1.412,12.447,4.234c2.823,2.824,4.235,6.973,4.235,12.447
			c0,4.451-0.942,12.832-2.823,25.15c-1.713,10.439-3.08,20.32-4.106,29.643c-1.026,9.328-1.54,19.721-1.54,31.182
			c0,6.504-1.327,11.164-3.978,13.988c-2.655,2.822-6.974,4.234-12.961,4.234c-5.646,0-9.752-1.451-12.318-4.363
			c-2.566-2.908-3.85-7.27-3.85-13.09c0-6.84,1.194-18.133,3.593-33.875c2.053-13.688,3.08-22.412,3.08-26.178
			c0-2.736-0.942-4.107-2.823-4.107c-2.226,0-5.35,2.867-9.368,8.598c-4.021,5.734-8.128,13.307-12.318,22.713
			c-4.194,9.412-7.571,19.336-10.138,29.771c-1.885,8.043-4.065,13.473-6.544,16.297c-2.482,2.822-6.376,4.234-11.678,4.234
			C1596.835,720.522,1592.26,717.101,1589.609,710.257z"/>
	</g>
</g>
</svg>
