<svg id="Layer_1" data-name="Layer 1" xmlns="http://www.w3.org/2000/svg" viewBox="0 0 157.35 109.76"><defs><style>.cls-1{fill:none;}.cls-2{fill:#e5e5e5;}.cls-3{fill:#6d6b6b;}.cls-4{opacity:0.78;}.cls-5{fill:#474747;}.cls-6{opacity:0.63;}.cls-7{fill:#161616;}.cls-8{fill:#4c4c4c;}.cls-9{fill:#939393;}.cls-10{fill:#bcbcbc;}.cls-11{fill:#d8d6d6;}.cls-12{fill:#666;}.cls-13{fill:#9b9b9b;}.cls-14{fill:#898989;}.cls-15{fill:#ccc;}.cls-16{fill:#aaa;}.cls-17{fill:#353535;}.cls-18{fill:#57448c;}.cls-19{fill:#e2e2e2;}.cls-20{fill:#1e1e1e;}.cls-21{fill:#282828;}.cls-22{fill:#f4f4f4;}.cls-23{fill:#939292;}.cls-24{fill:#606060;}</style></defs><title>logo-3d</title><polygon class="cls-1" points="57.87 97.01 57.88 97.02 63.15 94 63.15 94 57.87 97.01"/><polygon class="cls-1" points="96.06 95.77 88.3 86.64 96.06 95.77 96.06 95.77"/><polygon class="cls-1" points="142.11 61.76 142.15 61.78 142.07 61.7 142.11 61.76"/><polygon class="cls-1" points="57.11 95.77 64.84 86.67 57.11 95.77 57.11 95.77"/><polygon class="cls-1" points="75.9 94.79 87.69 92.68 75.52 94.71 75.9 94.79"/><polygon class="cls-1" points="59.59 49.32 59.48 49.24 60.05 50.41 59.59 49.32"/><polygon class="cls-1" points="67.19 68.06 67.44 69.02 69.41 76.49 69.47 76.46 67.5 68.98 67.19 68.06"/><path class="cls-2" d="M37.46,20.18l.47.56Z"/><path class="cls-2" d="M38.53,21.45l.33.38Z"/><polygon class="cls-2" points="46.28 12.56 46.3 12.6 46.38 12.57 35.51 4.1 46.26 12.59 46.28 12.56"/><path class="cls-2" d="M34.9,17.17l1.75,2.07Z"/><polygon class="cls-2" points="46.3 12.61 46.42 12.6 46.42 12.6 46.3 12.61 46.3 12.61"/><path class="cls-2" d="M33.91,29.22l-3.51-2.4-2-17.24c-.6-.71-4.18-7.68-4.18-7.68L19.58,12.43l4.68,19.19L26,39.91l7.94-10.69Z"/><polygon class="cls-3" points="50.12 27.15 46.28 12.61 39.15 22.17 33.91 29.22 33.91 29.22 25.97 39.91 25.45 40.61 22.83 44.46 22.49 44.97 11.09 61.71 50.12 27.15 50.12 27.15"/><polygon class="cls-3" points="46.3 12.61 46.28 12.61 46.3 12.61 46.3 12.61"/><polygon class="cls-3" points="46.28 12.56 46.26 12.59 46.28 12.61 46.3 12.6 46.28 12.56"/><polygon class="cls-4" points="7.23 75.11 21.98 65.69 31.3 59.75 7.23 75.11"/><polygon class="cls-4" points="7.14 75.13 7.15 75.13 7.15 75.12 7.14 75.13"/><polygon class="cls-2" points="57.88 97.02 57.87 97.01 63.15 94 62.36 92.71 65.47 92.68 67.14 89.51 66.67 89.28 64.84 86.67 57.11 95.77 57.11 95.77 54.35 99.01 42.79 97.51 54.45 99.02 54.43 99.01 57.88 97.02"/><path d="M38.86,21.83l-.33-.38-.6-.71-.47-.56-.81-.94L34.9,17.17c-.23-.26-.45-.53-.68-.8l-1.13-1.32-.31-.37-.23-.27-.95-1.12-.79-.92-.12-.14-.85-1-.77-.91-.44-.52-.19-.22,2,17.24,3.51,2.4,5.24-7-.23-.26Z"/><polygon class="cls-5" points="58.38 11.85 58.38 11.85 58.37 11.85 58.38 11.85"/><polygon class="cls-5" points="46.28 12.61 50.12 27.15 54.35 43.16 58.37 11.85 58.37 11.85 46.42 12.6 46.3 12.61 46.28 12.61"/><polygon class="cls-6" points="38.91 73.65 26.96 87.26 26.94 87.25 26.96 87.31 38.92 73.66 38.91 73.65"/><polygon class="cls-4" points="26.94 87.25 26.96 87.26 38.91 73.65 21.98 65.69 26.94 87.25"/><polygon class="cls-6" points="26.94 87.25 26.96 87.26 38.91 73.65 21.98 65.69 26.94 87.25"/><polygon points="21.98 65.69 7.23 75.11 7.17 75.14 7.14 75.16 15.35 80.15 15.44 80.25 26.96 87.31 26.94 87.25 21.98 65.69"/><path class="cls-7" d="M47.92,63.55l-3.66,4,9.05,3.83V66.15A12.76,12.76,0,0,1,47.92,63.55Z"/><path d="M64.64,61.27,60.05,50.41l-.57-1.17-2.9,4c-2.95-1.24-7.34-.85-13.8,3.36l-2.29-.24-.05,0L31.3,59.75,22,65.69l16.92,8h0l0,0,5.32-6.08,3.66-4a12.76,12.76,0,0,0,5.39,2.6v5.23L64.93,62ZM53.23,63.34c-.12,0-.26-.07-.38-.12a4.09,4.09,0,0,1-.46-.25,2.25,2.25,0,0,1-.31-.16,4.54,4.54,0,0,1-.41-.33c-.09-.08-.19-.14-.27-.22s-.22-.26-.33-.39a3.11,3.11,0,0,1-.23-.28c-.09-.13-.16-.27-.24-.41s-.14-.23-.2-.36-.09-.27-.13-.4-.11-.3-.15-.46,0-.24,0-.36,0-.3-.06-.46l0,0A.77.77,0,0,1,50,59a4.6,4.6,0,0,1,9.2,0c0,.06,0,.12,0,.18l0,0a4.62,4.62,0,0,1-.09.65s0,.06,0,.08a3.82,3.82,0,0,1-.23.77s0,.07,0,.1a4.48,4.48,0,0,1-.37.68l0,.1a5.47,5.47,0,0,1-.49.59s0,.06-.08.08a4.65,4.65,0,0,1-.59.49l-.08.07a3.83,3.83,0,0,1-.69.37l-.09.05a4.37,4.37,0,0,1-.8.25l-.06,0a4.7,4.7,0,0,1-.92.09h0l-.22,0a5.2,5.2,0,0,1-.69-.07A4.19,4.19,0,0,1,53.23,63.34Z"/><path class="cls-7" d="M56.58,53.2l2.9-4-19,7.08,2.29.24C49.24,52.35,53.63,52,56.58,53.2Z"/><polygon class="cls-7" points="67.44 69.02 67.19 68.06 65.91 64.3 64.93 61.97 53.31 71.39 62.99 69.76 67.44 69.02"/><polygon class="cls-8" points="44.26 67.55 38.95 73.63 38.92 73.66 26.96 87.31 53.31 71.39 44.26 67.55"/><polygon class="cls-3" points="26.96 87.31 31.83 90.35 31.97 90.54 42.79 97.51 53.31 71.39 26.96 87.31"/><polygon class="cls-9" points="53.31 71.39 42.79 97.51 54.35 99.01 53.31 71.39"/><polygon class="cls-10" points="53.31 71.39 54.35 99.01 62.99 69.76 53.31 71.39"/><path class="cls-11" d="M66.39,79.18l.79-3.26c-.09-1.46.26-6.9.26-6.9L63,69.76,54.35,99l2.76-3.24,7.73-9.1-1.37-2Z"/><path class="cls-12" d="M67.18,75.92l.92-3.87,1.28,4.45h0l-2-7.47S67.09,74.46,67.18,75.92Z"/><polygon class="cls-11" points="30.19 56.16 11.01 61.78 8.7 69.76 7.15 75.12 7.15 75.13 7.14 75.16 31.71 55.34 30.19 56.16"/><polygon class="cls-10" points="59.54 49.2 59.56 49.21 76.58 42.86 67.26 37.91 54.35 43.16 31.72 55.34 59.48 49.24 59.55 49.22 59.54 49.2"/><polygon class="cls-2" points="106.88 12.56 106.9 12.59 117.66 4.1 106.78 12.57 106.87 12.6 106.88 12.56"/><polygon class="cls-2" points="122.77 26.82 119.25 29.22 127.19 39.91 128.91 31.62 133.58 12.43 128.9 1.9 124.72 9.58 122.77 26.82"/><polygon class="cls-13" points="133.39 49.57 141.53 60.92 135.16 51.55 134.54 51.17 133.39 49.57"/><polygon class="cls-13" points="127.35 41.15 129.73 44.46 131.04 45.5 130.4 44.55 130.15 44.46 127.35 41.15"/><polygon class="cls-13" points="103.21 26.51 103.21 26.52 121.45 55.34 124.83 56.08 142.11 61.76 142.07 61.7 103.21 26.51"/><polygon class="cls-13" points="106.88 12.56 106.87 12.6 106.88 12.61 106.9 12.59 106.88 12.56"/><polygon class="cls-13" points="118.94 29.43 127.35 41.15 128.48 41.74 127.71 40.61 127.19 39.91 119.25 29.22 118.94 29.43"/><polygon class="cls-4" points="146.01 75.12 146.01 75.13 146.02 75.13 146.01 75.12"/><polygon class="cls-2" points="96.06 95.77 88.3 86.64 86.81 88.77 86.32 89.07 87.69 92.68 90.8 92.11 89.7 93.82 95.3 97.01 98.81 99.01 96.06 95.77 96.06 95.77"/><polygon points="119.25 29.22 122.77 26.82 124.72 9.58 113.87 22.35 118.94 29.43 119.25 29.22"/><polygon class="cls-5" points="103.2 26.51 106.88 12.61 99.01 12.25 98.8 12.1 95.56 11.89 98.81 43.16 103.2 26.51"/><polygon class="cls-5" points="103.21 26.51 103.2 26.51 103.21 26.52 103.21 26.51"/><polygon class="cls-14" points="83.07 11.08 76.58 9.99 70.09 11.08 76.58 42.86 83.07 11.08"/><polygon class="cls-6" points="126.2 87.26 114.25 73.65 114.24 73.66 126.2 87.31 126.22 87.25 126.2 87.26"/><polygon class="cls-4" points="126.2 87.26 126.22 87.25 131.18 65.69 114.25 73.65 126.2 87.26"/><polygon class="cls-6" points="126.2 87.26 126.22 87.25 131.18 65.69 114.25 73.65 126.2 87.26"/><polygon points="126.22 87.25 126.2 87.31 137.88 80.15 146.02 75.16 131.18 65.69 126.22 87.25"/><path class="cls-7" d="M99.85,66.2v5.18l9.05-3.83-3.53-3.85A12.34,12.34,0,0,1,99.85,66.2Z"/><path d="M99.85,71.38V66.2a12.34,12.34,0,0,0,5.52-2.5l3.53,3.85,5.32,6.08,0,0h0l16.93-8-9.31-5.94-9.15-3.41,0,0-2,.21c-6.63-4.3-11.06-4.58-14-3.22l-3-4.07-6,12.3Zm-1-17a4.6,4.6,0,0,1,4.6,4.6.77.77,0,0,1,0,.15l0,0c0,.16,0,.3-.06.46s0,.24,0,.36-.1.31-.15.46-.08.27-.13.4-.13.24-.2.36-.15.28-.24.41a3.11,3.11,0,0,1-.23.28c-.11.13-.21.27-.33.39s-.18.14-.27.22a4.54,4.54,0,0,1-.41.33,2.85,2.85,0,0,1-.3.16c-.16.09-.31.18-.47.25s-.25.08-.38.12a4.19,4.19,0,0,1-.47.14,5.2,5.2,0,0,1-.69.07l-.22,0h0a4.7,4.7,0,0,1-.92-.09l-.06,0a4.37,4.37,0,0,1-.8-.25L97,63.16a3.83,3.83,0,0,1-.69-.37l-.08-.07a4.65,4.65,0,0,1-.59-.49s0-.06-.08-.08a5.47,5.47,0,0,1-.49-.59s0-.07,0-.1a4.48,4.48,0,0,1-.37-.68s0-.07,0-.1a3.82,3.82,0,0,1-.23-.77s0,0,0-.08a4.62,4.62,0,0,1-.09-.65l0,0a1.1,1.1,0,0,1,0-.18A4.6,4.6,0,0,1,98.88,54.37Z"/><path class="cls-7" d="M110.67,56.53l2-.21-19-7.08,3,4.07C99.61,52,104,52.23,110.67,56.53Z"/><polygon class="cls-7" points="85.72 69.02 90.17 69.76 99.85 71.39 87.69 61.54 85.72 69.02"/><polygon class="cls-8" points="114.22 73.63 108.9 67.55 99.85 71.39 126.2 87.31 114.24 73.66 114.22 73.63"/><polygon class="cls-3" points="110.37 97.51 122.36 89.78 122.36 89.78 126.2 87.31 99.85 71.39 110.37 97.51"/><polygon class="cls-9" points="98.81 99.01 104.59 98.26 110.37 97.51 99.85 71.39 98.81 99.01"/><polygon class="cls-10" points="90.17 69.76 98.81 99.01 99.85 71.39 90.17 69.76"/><path class="cls-11" d="M85.72,69s.19,2.9.26,5l1.1,4.62L90,84.21l-1.7,2.43,7.76,9.13L98.81,99,90.17,69.76Z"/><path class="cls-12" d="M85.38,71.54l.6,2.51c-.07-2.13-.26-5-.26-5l-1.56,6.46Z"/><polygon class="cls-11" points="142.17 61.86 142.17 61.86 142.15 61.78 142.11 61.76 124.83 56.08 121.45 55.34 146.02 75.16 146.01 75.13 146.01 75.12 142.17 61.86"/><polygon class="cls-10" points="85.91 37.91 76.58 42.86 93.68 49.24 121.45 55.34 98.81 43.16 85.91 37.91"/><polygon class="cls-7" points="83.12 79.81 84.16 75.48 82.98 79.1 81.44 85.26 83.12 79.81 83.06 80.01 81.44 85.26 86.81 88.77 88.3 86.64 90 84.21 87.08 78.67 85.98 74.06 85.38 71.54 83.12 79.81"/><polygon class="cls-11" points="64.64 61.27 64.93 61.97 65.91 64.3 67.19 68.06 67.5 68.98 69.47 76.46 76.58 73.08 76.58 62.29 59.59 49.32 60.05 50.41 64.64 61.27"/><polygon class="cls-11" points="59.55 49.22 59.56 49.21 59.54 49.2 59.55 49.22"/><polygon class="cls-15" points="76.58 73.08 84.16 75.48 85.72 69.02 87.69 61.54 93.68 49.24 76.58 62.29 76.58 73.08"/><polygon class="cls-2" points="59.56 49.21 59.55 49.22 59.48 49.24 59.59 49.32 76.58 62.29 93.68 49.24 76.58 42.86 59.56 49.21"/><polygon class="cls-16" points="7.23 75.11 31.3 59.75 40.44 56.34 40.49 56.32 59.48 49.24 31.72 55.34 54.35 43.16 50.12 27.15 50.12 27.15 30.19 56.16 31.71 55.34 7.14 75.16 7.17 75.14 7.23 75.11"/><polygon class="cls-16" points="93.68 49.24 112.67 56.32 112.72 56.34 121.87 59.75 131.18 65.69 146.02 75.16 121.45 55.34 93.68 49.24"/><polygon class="cls-13" points="50.12 27.15 11.09 61.71 11.01 61.78 30.19 56.16 50.12 27.15"/><polygon class="cls-3" points="129.73 44.46 127.35 41.15 127.35 41.15 118.94 29.43 113.87 22.35 113.66 22.59 106.88 12.61 103.2 26.51 103.21 26.51 142.07 61.7 142.15 61.78 141.53 60.92 133.39 49.57 129.73 44.46"/><polygon class="cls-16" points="103.2 26.51 98.81 43.16 121.45 55.34 103.21 26.52 103.2 26.51"/><polygon class="cls-16" points="67.26 37.91 70.09 11.08 54.35 43.16 67.26 37.91"/><polygon class="cls-16" points="98.81 43.16 83.07 11.08 85.91 37.91 98.81 43.16"/><polygon class="cls-9" points="76.58 42.86 70.09 11.08 67.26 37.91 76.58 42.86"/><polygon class="cls-9" points="85.91 37.91 83.07 11.08 76.58 42.86 85.91 37.91"/><polygon class="cls-17" points="54.35 43.16 70.09 11.08 58.38 11.85 58.37 11.85 54.35 43.16"/><polygon class="cls-17" points="95.56 11.89 90.9 11.59 90.94 11.6 83.07 11.08 98.81 43.16 95.56 11.89"/><path class="cls-15" d="M28.63,9.8l.44.52.77.91.85,1,.12.14.79.92.95,1.12.23.27.31.37,1.13,1.32c.23.27.45.54.68.8l1.75,2.07.81.94.47.56.6.71.33.38.06.08.23.26,7.13-9.56,0,0L35.51,4.1,24.26,1.9s3.58,7,4.18,7.68Z"/><polygon class="cls-15" points="106.88 12.61 113.66 22.59 113.87 22.35 124.72 9.58 128.9 1.9 117.66 4.1 106.9 12.59 106.88 12.61"/><path class="cls-18" d="M54.61,63.57h0l-.23,0Z"/><path class="cls-18" d="M59.2,59.15c0-.06,0-.12,0-.18A4.6,4.6,0,0,0,50,59a.77.77,0,0,0,0,.15,6.59,6.59,0,0,1,9.17,0Z"/><path class="cls-19" d="M54.39,63.55l.23,0h0a4.7,4.7,0,0,0,.92-.09l.06,0a4.37,4.37,0,0,0,.8-.25l.09-.05a3.83,3.83,0,0,0,.69-.37l.08-.07a4.65,4.65,0,0,0,.59-.49s0-.06.08-.08a5.47,5.47,0,0,0,.49-.59l0-.1a4.48,4.48,0,0,0,.37-.68s0-.07,0-.1a3.82,3.82,0,0,0,.23-.77s0,0,0-.08a4.62,4.62,0,0,0,.09-.65l0,0a6.59,6.59,0,0,0-9.17,0l0,0c0,.16,0,.3.06.46s0,.24,0,.36.1.31.15.46.08.27.13.4.13.24.2.36.15.28.24.41a3.11,3.11,0,0,0,.23.28c.11.13.21.27.33.39s.18.14.27.22a4.54,4.54,0,0,0,.41.33,2.25,2.25,0,0,0,.31.16,4.09,4.09,0,0,0,.46.25c.12.05.26.08.38.12a4.19,4.19,0,0,0,.47.14A5.2,5.2,0,0,0,54.39,63.55Zm.67-6.21a1.33,1.33,0,1,1-1.33,1.33A1.32,1.32,0,0,1,55.06,57.34Z"/><circle cx="55.06" cy="58.67" r="1.33"/><path class="cls-18" d="M94.28,59a1.1,1.1,0,0,0,0,.18,6.58,6.58,0,0,1,9.16,0,.77.77,0,0,0,0-.15,4.6,4.6,0,0,0-9.2,0Z"/><path class="cls-18" d="M98.88,63.57l.22,0-.22,0Z"/><path class="cls-19" d="M94.3,59.15l0,0a4.62,4.62,0,0,0,.09.65s0,.06,0,.08a3.82,3.82,0,0,0,.23.77s0,.07,0,.1a4.48,4.48,0,0,0,.37.68s0,.07,0,.1a5.47,5.47,0,0,0,.49.59s0,.06.08.08a4.65,4.65,0,0,0,.59.49l.08.07a3.83,3.83,0,0,0,.69.37l.09.05a4.37,4.37,0,0,0,.8.25l.06,0a4.7,4.7,0,0,0,.92.09h0l.22,0a5.2,5.2,0,0,0,.69-.07,4.19,4.19,0,0,0,.47-.14c.13,0,.26-.07.38-.12s.31-.16.47-.25a2.85,2.85,0,0,0,.3-.16,4.54,4.54,0,0,0,.41-.33c.09-.08.19-.14.27-.22s.22-.26.33-.39a3.11,3.11,0,0,0,.23-.28c.09-.13.16-.27.24-.41s.14-.23.2-.36.09-.27.13-.4.11-.3.15-.46,0-.24,0-.36,0-.3.06-.46l0,0a6.58,6.58,0,0,0-9.16,0Zm5.46-.48a1.33,1.33,0,1,1-1.33-1.33A1.33,1.33,0,0,1,99.76,58.67Z"/><circle cx="98.43" cy="58.67" r="1.33"/><polygon class="cls-7" points="69.38 76.5 68.1 72.05 67.17 75.92 66.39 79.18 63.47 84.72 64.84 86.67 66.67 89.28 72.03 85.77 69.38 76.5"/><polygon points="82.98 79.1 84.16 75.48 76.58 73.08 69.47 76.46 69.41 76.49 69.38 76.5 72.03 85.77 66.67 89.28 67.14 89.51 67.16 89.47 69.38 90.01 69.39 90.01 76.58 92.11 84.31 90.35 86.32 89.07 86.81 88.77 81.44 85.26 82.98 79.1"/><polygon class="cls-20" points="85.38 71.54 84.16 75.48 83.12 79.81 85.38 71.54"/><polygon class="cls-20" points="83.12 79.81 81.44 85.26 83.06 80.01 83.12 79.81"/><polygon points="65.47 92.68 68.8 97.04 76.58 99.47 84.2 97.25 87.69 92.68 75.9 97.31 65.47 92.68"/><polygon class="cls-21" points="75.52 94.71 75.52 94.71 65.47 92.68 75.9 97.31 87.69 92.68 75.9 94.79 75.52 94.71"/><polygon class="cls-21" points="88.25 96.07 89.7 93.82 90.8 92.11 87.69 92.68 84.2 97.25 88.25 96.07"/><polygon class="cls-21" points="62.36 92.71 63.15 94 63.15 94 64.11 95.58 68.8 97.04 65.47 92.68 62.36 92.71"/><polygon class="cls-22" points="76.58 92.11 69.39 90.01 69.38 90.01 67.16 89.47 67.14 89.51 65.47 92.68 75.52 94.71 75.52 94.71 87.69 92.68 86.32 89.07 84.31 90.35 76.58 92.11"/><polygon class="cls-22" points="1.7 74.59 8.7 69.76 11.01 61.78 1.7 74.59"/><polygon class="cls-23" points="3.7 64.99 16.61 53.6 22.49 44.97 22.83 44.46 3.7 64.99"/><polygon class="cls-14" points="9.39 49.12 22.83 44.46 25.45 40.61 9.39 49.12"/><polygon class="cls-14" points="127.35 41.15 130.15 44.46 130.4 44.55 142.57 49.12 128.48 41.74 127.35 41.15 127.35 41.15"/><polygon class="cls-23" points="133.39 49.57 134.54 51.17 135.16 51.55 150.95 61.3 131.04 45.5 129.73 44.46 133.39 49.57"/><polygon class="cls-22" points="142.17 61.86 144.24 69.02 155.95 74.59 142.15 61.78 142.17 61.86 142.17 61.86"/><polygon class="cls-24" points="58.38 11.85 65.61 11.37 74.31 3.28 58.37 11.85 58.37 11.85 58.38 11.85"/><polygon class="cls-24" points="90.9 11.59 74.31 5.95 83.07 11.08 90.94 11.6 90.9 11.59"/><polygon class="cls-14" points="46.28 12.61 46.3 12.61 46.42 12.6 54.3 12.04 63.52 5.95 46.38 12.57 46.3 12.6 46.28 12.61"/><polygon class="cls-14" points="106.88 12.61 106.87 12.6 106.78 12.57 90.17 5.95 98.8 12.1 99.01 12.25 106.88 12.61"/><polygon class="cls-11" points="63.15 94 57.88 97.02 54.43 99.01 54.45 99.02 69.38 108.03 64.11 95.58 63.15 94"/><polygon class="cls-2" points="69.38 108.03 76.58 108.03 64.11 95.58 69.38 108.03"/><polygon class="cls-2" points="76.58 108.03 81.44 108.03 88.25 96.07 76.58 108.03"/><polygon class="cls-22" points="84.2 97.25 76.58 99.47 68.8 97.04 64.11 95.58 76.58 108.03 88.25 96.07 84.2 97.25"/><polygon class="cls-11" points="89.7 93.82 88.25 96.07 81.44 108.03 98.81 99.01 95.3 97.01 89.7 93.82"/><polygon class="cls-23" points="124.72 97.01 145.97 75.22 146.02 75.16 137.88 80.15 124.72 97.01"/><polygon class="cls-23" points="7.14 75.16 7.19 75.21 31.72 99.01 15.44 80.25 15.35 80.15 7.14 75.16"/><polygon class="cls-23" points="26.96 87.31 36.71 97.01 31.97 90.54 31.83 90.35 26.96 87.31"/><polygon class="cls-23" points="122.36 89.78 117.73 97.01 126.2 87.31 122.36 89.78 122.36 89.78"/><polygon class="cls-23" points="47.48 98.11 42.79 97.51 56.3 102.78 47.48 98.11"/><polygon class="cls-23" points="94.83 103.52 110.37 97.51 104.59 98.26 94.83 103.52"/></svg>