<?xml version="1.0" encoding="utf-8"?>
<!-- Generator: Adobe Illustrator 22.0.1, SVG Export Plug-In . SVG Version: 6.00 Build 0)  -->
<svg version="1.1" id="Layer_2" xmlns="http://www.w3.org/2000/svg" xmlns:xlink="http://www.w3.org/1999/xlink" x="0px" y="0px"
	 viewBox="0 0 453.3 454" style="enable-background:new 0 0 453.3 454;" xml:space="preserve">
<style type="text/css">
	.st0{fill:#58595B;}
	.st1{fill:none;stroke:#58595B;stroke-width:9;stroke-miterlimit:10;}
	.st2{fill:#F21C2C;}
</style>
<g>
	<g>
		<path class="st0" d="M76.2,194.3v67c0,6.6,5.4,12,12,12h46.5v-91H88.2C81.6,182.3,76.2,187.7,76.2,194.3z"/>
		<polygon class="st0" points="147.2,180.1 147.2,275.6 251.2,327.8 251.2,127.9 		"/>
	</g>
	<path class="st1" d="M284.1,187.3c0,0,46.3,35.3,0,87.7"/>
	<path class="st1" d="M303.2,158.4c0,0,77.6,58.6,0,145.3"/>
	<path class="st1" d="M326.3,133.1c0,0,99,78.9,0,195.9"/>
</g>
<path class="st2" d="M227,4.6C103.7,4.6,3.8,104.5,3.8,227.8s100,223.3,223.3,223.3s223.3-100,223.3-223.3S350.3,4.6,227,4.6z
	 M31.5,227.8c0-48.5,17.7-92.9,46.9-127.1l275.6,275.6c-34.2,29.3-78.6,46.9-127.1,46.9C119,423.3,31.5,335.8,31.5,227.8z
	 M375.6,354.9L100,79.2c34.2-29.2,78.5-46.9,127-46.9c108,0,195.5,87.5,195.5,195.5C422.5,276.3,404.8,320.7,375.6,354.9z"/>
</svg>
