<?xml version="1.0" encoding="utf-8"?>
<!-- Generator: Adobe Illustrator 22.0.1, SVG Export Plug-In . SVG Version: 6.00 Build 0)  -->
<svg version="1.1" xmlns="http://www.w3.org/2000/svg" xmlns:xlink="http://www.w3.org/1999/xlink" x="0px" y="0px"
	 viewBox="0 0 299 294.7" style="enable-background:new 0 0 299 294.7;" xml:space="preserve">
<style type="text/css">
	.st0{fill:#FFD602;}
	.st1{fill:#FEFEFE;}
	.st2{fill:#FDECB8;}
	.st3{fill:#FCECBB;}
	.st4{fill:#F5CC40;}
	.st5{fill:#FB6100;}
	.st6{fill:#FF7F00;}
</style>
<g id="Layer_1">
</g>
<g id="Layer_2">
	<circle class="st0" cx="148.4" cy="148.2" r="141.2"/>
	<g>
		<polygon class="st1" points="66,98.2 96.2,229.6 199.7,205.9 222.2,171 197.4,66.9 		"/>
		<g>
			<path class="st2" d="M179.3,126.9c-0.3-1.2-1.5-1.9-2.6-1.6l-75.8,18.3c-1.2,0.3-1.9,1.5-1.6,2.6s1.5,1.9,2.6,1.6l75.8-18.3
				C178.8,129.3,179.6,128.1,179.3,126.9z"/>
			<path class="st2" d="M184.1,147.1c-0.3-1.2-1.5-1.9-2.6-1.6l-75.8,18.3c-1.2,0.3-1.9,1.5-1.6,2.6c0.3,1.2,1.5,1.9,2.6,1.6
				l75.8-18.3C183.7,149.4,184.4,148.2,184.1,147.1z"/>
			<path class="st2" d="M166,170.2l-55.5,13.4c-1.2,0.3-1.9,1.5-1.6,2.6v0c0.3,1.2,1.5,1.9,2.6,1.6l55.5-13.4
				c1.2-0.3,1.9-1.5,1.6-2.6S167.1,169.9,166,170.2z"/>
		</g>
	</g>
	<polygon class="st3" points="199.9,205.2 193.8,176.2 222.2,170.5 	"/>
	<polygon class="st3" points="193.7,176.7 222.4,170.5 222.1,171 	"/>
	<g>
		<path class="st4" d="M138.4,122.5L138.4,122.5c-3.1,0-5.7-2.6-5.7-5.7V92.5c0-3.1,2.6-5.7,5.7-5.7h0c3.1,0,5.7,2.6,5.7,5.7v24.4
			C144.1,120,141.6,122.5,138.4,122.5z"/>
		<g>
			<circle class="st5" cx="138.4" cy="81.5" r="15.6"/>
			<path class="st6" d="M138.4,65.9c-8.6,0-15.6,7-15.6,15.6c0,4.7,2.1,8.9,5.4,11.8l22-22C147.3,68,143.1,65.9,138.4,65.9z"/>
		</g>
	</g>
</g>
</svg>
