<?xml version="1.0" encoding="utf-8"?>
<!-- Generator: Adobe Illustrator 22.0.1, SVG Export Plug-In . SVG Version: 6.00 Build 0)  -->
<svg version="1.1" xmlns="http://www.w3.org/2000/svg" xmlns:xlink="http://www.w3.org/1999/xlink" x="0px" y="0px"
	 viewBox="0 0 486.6 486.6" style="enable-background:new 0 0 486.6 486.6;" xml:space="preserve">
<style type="text/css">
	.st0{fill:#C1C1C1;}
</style>
<g id="Layer_2">
	<circle class="st0" cx="243.3" cy="243.3" r="220"/>
</g>
<g id="Capa_1">
	<g>
		<path d="M300.6,186c-15.1,0-27.3,12.2-27.3,27.3s12.2,27.3,27.3,27.3c15.1,0,27.3-12.2,27.3-27.3v0
			C327.9,198.2,315.7,186,300.6,186z M286.9,229.6c-3,0-5.5-2.4-5.5-5.5c0-3,2.4-5.5,5.5-5.5c3,0,5.5,2.4,5.5,5.5
			C292.4,227.2,290,229.6,286.9,229.6z M317,205.1c0,6-4.9,10.9-10.9,10.9c0,0,0,0,0,0c-6,0-10.9-4.9-10.9-10.9
			c0-6,4.9-10.9,10.9-10.9C312.1,194.2,317,199,317,205.1L317,205.1z"/>
		<path d="M213.3,213.3c0-15.1-12.2-27.3-27.3-27.3c-15.1,0-27.3,12.2-27.3,27.3c0,15.1,12.2,27.3,27.3,27.3
			C201,240.5,213.3,228.3,213.3,213.3z M172.3,229.6L172.3,229.6c-3,0-5.5-2.4-5.5-5.5c0-3,2.4-5.5,5.5-5.5c3,0,5.5,2.4,5.5,5.5
			C177.8,227.2,175.3,229.6,172.3,229.6z M180.5,205.1C180.5,205.1,180.5,205.1,180.5,205.1L180.5,205.1c0-6,4.9-10.9,10.9-10.9
			c6,0,10.9,4.9,10.9,10.9c0,6-4.9,10.9-10.9,10.9h0C185.4,216,180.5,211.1,180.5,205.1z"/>
		<path d="M333.8,152.7c-24-24.1-56.6-37.6-90.6-37.5c-70.7,0-128.1,57.3-128.1,128.1c0,34,13.5,66.6,37.5,90.6
			c50,50,131.1,50,181.1,0S383.9,202.7,333.8,152.7z M243.3,360.8c-64.8,0-117.5-52.7-117.5-117.5c0-64.8,52.7-117.5,117.5-117.5
			s117.5,52.7,117.5,117.5C360.8,308.1,308.1,360.8,243.3,360.8z"/>
		<path d="M186,180.4c7.5,4.9,16.2,7.4,25.2,7.3c3.4,0,6.9-0.3,10.2-1.1l-2.3-10.3c-3.5,0.8-15.9,2.8-27.3-4.8
			c-5.5-3.7-9.9-9-12.6-15.1l-9.6,4.3C173.1,168.8,178.7,175.6,186,180.4z"/>
		<path d="M301.5,180.4c7.2-4.8,12.9-11.6,16.4-19.6l-9.6-4.2c-2.7,6.1-7,11.3-12.5,15.1c-11.4,7.5-23.8,5.6-27.3,4.8l-2.3,10.3
			c3.4,0.7,6.9,1.1,10.4,1.1C285.3,187.8,294,185.3,301.5,180.4z"/>
		<path d="M243.3,251.8C243.3,251.8,243.3,251.8,243.3,251.8c-21.7,0-41.7,11.8-52.3,30.8c-5,8.9-7.6,18.9-7.5,29.1H194
			c0-27.2,22.1-49.3,49.3-49.3c27.2,0,49.3,22.1,49.3,49.3h10.5C303.2,278.6,276.4,251.8,243.3,251.8z"/>
	</g>
</g>
</svg>
